<?xml version="1.0" encoding="UTF-8"?>
<svg id="Layer_2" data-name="Layer 2" xmlns="http://www.w3.org/2000/svg" viewBox="0 0 26.39 27.36">
  <defs>
    <style>
      .cls-1 {
        fill: #d83e5f;
        stroke-width: 0px;
      }
    </style>
  </defs>
  <g id="Layer_1-2" data-name="Layer 1">
    <g>
      <path class="cls-1" d="M11.43,14.21c-.32.12-.65.24-.97.36-.04.02-.1-.02-.16-.04-.02,0-.04-.04-.06-.05-.2-.21-.39-.42-.59-.63.12-.37.23-.74.35-1.12.49.51.95.99,1.43,1.48M25.62,23.82c-.22,0-.43,0-.63,0-.3,0-.47.17-.47.41,0,.24.16.39.45.41.1,0,.21,0,.31,0h.32v1.89h-11.8c.09-.1.15-.17.21-.24,1.16-1.21,2.32-2.41,3.48-3.62.05-.06.11-.11.16-.17.17-.21.17-.43,0-.6-.16-.16-.38-.16-.57.04-.47.48-.92.96-1.39,1.43-.09.09-.25.16-.37.16-4.08,0-8.16,0-12.24,0-1.08,0-1.87-.57-2.19-1.56-.36-1.11.34-2.42,1.49-2.77.2-.06.4-.09.61-.11.3-.03.46-.17.46-.49,0-.92,0-1.84,0-2.76,0-.3-.17-.5-.4-.5-.23,0-.39.19-.39.5,0,.71-.01,1.43,0,2.14,0,.22-.04.32-.28.37-.6.12-1.11.45-1.6.96v-.33c0-4.82,0-9.64,0-14.47,0-1.09.44-1.91,1.42-2.36.13-.06.27-.09.46-.15v.38c0,3.82,0,7.64,0,11.47,0,.13-.02.29.04.39.07.12.2.24.33.28.17.05.32-.05.38-.23.04-.12.05-.25.05-.37,0-2.4,0-4.8,0-7.21v-.33h11.19c-.1.11-.16.18-.23.26-.58.6-1.15,1.2-1.73,1.8-.07.07-.14.14-.18.22-.11.18-.08.35.06.49.14.14.3.17.47.06.08-.06.16-.14.23-.21,1.65-1.72,3.3-3.43,4.96-5.15.07-.07.12-.15.17-.21.6.63,1.18,1.24,1.73,1.83-2.62,2.72-5.28,5.49-7.94,8.25-.54-.57-1.12-1.17-1.72-1.81.36-.37.74-.77,1.12-1.16.13-.13.26-.26.38-.4.16-.19.16-.41,0-.57-.15-.16-.38-.17-.55,0-.35.35-.67.74-1.05,1.07-.62.55-1.01,1.23-1.23,2.04-.23.84-.55,1.65-.82,2.47-.06.2-.15.26-.35.25-.3-.02-.6,0-.9,0-.33,0-.5.14-.5.4,0,.26.16.41.49.41,2.11,0,4.23,0,6.34,0,1.37,0,2.73,0,4.1,0,.1,0,.21.01.31-.02.18-.07.28-.21.26-.41-.02-.2-.14-.32-.33-.36-.08-.02-.17,0-.26,0-2.4,0-4.79,0-7.19,0h-.21c.12-.06.17-.09.22-.11.62-.23,1.24-.45,1.86-.69.17-.07.34-.17.47-.31,2.54-2.63,5.08-5.27,7.62-7.92.15-.15.29-.21.49-.21.92.01,1.84,0,2.76,0h.3c0,.12.01.22.01.31,0,2.67,0,5.34,0,8.01,0,.2-.06.33-.19.47-1.72,1.78-3.43,3.56-5.14,5.34-.03.03-.06.06-.09.09-.25.26-.29.51-.11.7.18.19.42.15.67-.12,2.14-2.23,4.29-4.46,6.43-6.69.07-.07.11-.18.16-.27.03.02.05.05.08.07v3.46c-.21,0-.42,0-.62,0-.28,0-.45.16-.46.39-.01.25.15.41.46.42.2,0,.41,0,.63,0v1.21c-.22,0-.44,0-.66,0-.27,0-.42.15-.43.39,0,.24.17.41.44.41.21,0,.41,0,.62.01,0,0,.01.01.03.03v1.16c-.21,0-.42,0-.62,0-.3.01-.47.17-.47.42,0,.25.18.4.48.41.2,0,.39,0,.62,0v1.19ZM19.67,2.36c.58.6,1.16,1.21,1.73,1.81-.21.21-.44.44-.65.65-.57-.59-1.15-1.19-1.73-1.79.21-.22.43-.46.64-.67M20.99.96c.2-.19.4-.2.6,0,.4.39.79.8,1.17,1.21.2.21.19.42-.01.64-.23.25-.47.5-.68.72-.59-.62-1.17-1.22-1.79-1.87.22-.22.46-.47.71-.71M25.63,13.06c-.17.17-.33.34-.49.51-.17.18-.34.35-.55.57v-.36c0-2.53,0-5.05,0-7.58,0-.52-.12-.64-.63-.64-.8,0-1.6,0-2.4,0h-.34c.72-.74,1.37-1.41,2.02-2.09.6-.63.6-1.32,0-1.95-.32-.34-.64-.67-.97-1-.65-.68-1.29-.68-1.95,0-1.56,1.62-3.11,3.23-4.66,4.85-.13.14-.26.2-.45.2-3.82,0-7.65,0-11.47,0h-.29v-.33c0-1.06-.02-2.13,0-3.19.02-.93-.24-.95-.98-.8C.98,1.54,0,2.82,0,4.4,0,9.98,0,15.55,0,21.12c0,.23.02.46.05.69.19,1.39,1.4,2.53,2.75,2.53,3.87.01,7.73,0,11.6,0h.36c-.43.45-.81.85-1.2,1.24-.33.35-.68.68-.99,1.05-.09.11-.14.31-.11.45.03.19.21.27.4.26.06,0,.12,0,.18,0,4.24,0,8.49,0,12.73,0,.24,0,.46-.03.62-.23v-14.04c-.27-.34-.46-.35-.76-.04"/>
      <path class="cls-1" d="M22.8,23.68h-2.72c.89-.92,1.81-1.89,2.72-2.83v2.83ZM23.36,19.33c-.2-.08-.36,0-.51.15-1.36,1.42-2.72,2.83-4.08,4.24-.14.15-.24.31-.16.52.08.21.26.26.46.26.67,0,1.34,0,2.01,0s1.32,0,1.98,0c.39,0,.54-.14.54-.54,0-1.38,0-2.77,0-4.15,0-.21-.05-.4-.25-.49"/>
    </g>
  </g>
</svg>