<?xml version="1.0" encoding="UTF-8"?>
<svg id="Layer_2" data-name="Layer 2" xmlns="http://www.w3.org/2000/svg" viewBox="0 0 23.36 24.01">
  <defs>
    <style>
      .cls-1 {
        fill: #d83e5f;
        strokeWidth: 0px;
      }
    </style>
  </defs>
  <g id="Layer_1-2" data-name="Layer 1">
    <g>
      <path class="cls-1" d="M18.33,13.32c-.32,0-.58.26-.58.58v8.85c0,.06-.05.11-.11.11H1.27c-.06,0-.11-.05-.11-.11V5.96h3.53c.7,0,1.27-.57,1.27-1.27V1.16h11.68c.06,0,.11.05.11.11v1.83c0,.32.26.58.58.58s.58-.26.58-.58v-1.83c0-.7-.57-1.27-1.27-1.27H5.38c-.15,0-.3.06-.41.17L.17,4.97c-.11.11-.17.26-.17.41v17.36c0,.7.57,1.27,1.27,1.27h16.38c.7,0,1.27-.57,1.27-1.27v-8.85c0-.32-.26-.58-.58-.58M4.8,4.69c0,.06-.05.11-.11.11H1.98l2.82-2.82v2.71Z"/>
      <path class="cls-1" d="M22.79,4.71l-.68-.68c-.76-.76-2.01-.76-2.77,0l-5.41,5.41H4.53c-.32,0-.58.26-.58.58s.26.58.58.58h8.23l-3.49,3.49h-4.74c-.32,0-.58.26-.58.58s.26.58.58.58h3.58,0c-.07.08-.12.17-.15.26l-.9,3.23h-2.53c-.32,0-.58.26-.58.58s.26.58.58.58h2.97s.13-.01.15-.02c0,0,3.66-1.01,3.66-1.01.1-.03.18-.08.25-.15l11.23-11.23c.76-.76.76-2.01,0-2.77M11.15,17.48l-1.82-1.82,9.27-9.27,1.82,1.82-9.27,9.27ZM8.81,16.78l1.23,1.23-1.7.47.47-1.7ZM21.97,6.66l-.73.73-1.82-1.82.73-.73c.31-.31.82-.31,1.13,0l.68.68c.31.31.31.82,0,1.13"/>
    </g>
  </g>
</svg>