<?xml version="1.0" encoding="UTF-8"?>
<svg id="Layer_2" data-name="Layer 2" xmlns="http://www.w3.org/2000/svg" viewBox="0 0 27.4 21.7">
  <defs>
    <style>
      .cls-1 {
        fill: #d83e5f;
        strokeWidth: 0px;
      }
    </style>
  </defs>
  <g id="Layer_1-2" data-name="Layer 1">
    <path class="cls-1" d="M25.23,19.97c-.14.04-.3.05-.45.05-3.69,0-7.38,0-11.08,0s-7.4,0-11.1,0c-.3,0-.58-.05-.79-.3-.36-.44-.18-1.14.35-1.31.12-.04.26-.06.39-.06,7.43,0,14.86,0,22.28,0,.29,0,.55.06.75.29.38.45.19,1.15-.36,1.32M3.68,11.04c.55-1.75,1.43-3.27,2.7-4.57.02-.02.04-.03.09-.06,0,.11.01.19.01.28,0,.82,0,1.63,0,2.45,0,.51.34.88.81.87.47,0,.8-.36.8-.88,0-1.28,0-2.56,0-3.84,0-.18.05-.28.21-.37.46-.24.91-.5,1.4-.77v.37c0,2.1,0,4.21,0,6.31,0,.43.28.78.67.84.41.06.79-.18.9-.6.03-.11.03-.24.03-.36,0-2.64,0-5.28,0-7.92,0-.07,0-.15,0-.22.02-.54.34-.89.86-.9,1.03,0,2.07,0,3.1,0,.55,0,.86.37.86.98,0,2.71,0,5.43,0,8.14,0,.48.3.85.72.88.49.04.88-.32.89-.84,0-.69,0-1.39,0-2.08v-4.6c.54.31,1.04.58,1.53.87.06.03.07.18.07.27,0,1.3,0,2.59,0,3.89,0,.43.3.78.69.83.41.05.77-.19.88-.59.03-.1.03-.22.03-.33,0-.88,0-1.76,0-2.73.27.3.51.54.72.8,1.29,1.58,2.12,3.39,2.42,5.44.1.66.1,1.35.12,2.02.02.67,0,1.35,0,2.05H3.22c0-1.9-.11-3.79.47-5.63M27.35,18.66c-.19-.83-.66-1.41-1.41-1.77-.07-.04-.14-.18-.14-.27-.01-.94,0-1.87-.01-2.81-.04-1.6-.36-3.14-.99-4.6-1.39-3.18-3.66-5.42-6.79-6.7-.21-.09-.3-.2-.33-.42C17.49.94,16.55.05,15.44.02,14.28,0,13.12,0,11.96.02c-1.11.03-2.05.91-2.22,2.06-.04.25-.15.35-.36.43-1.95.78-3.61,2-4.95,3.67-1.61,2-2.57,4.29-2.76,6.9-.08,1.15-.05,2.32-.05,3.47,0,.21-.06.3-.24.39-1.22.58-1.73,2.17-1.1,3.39.48.93,1.24,1.37,2.25,1.37h22.34c.07,0,.14,0,.21,0,.7-.04,1.28-.33,1.75-.88.3-.36.44-.79.58-1.23v-.83s-.05-.06-.05-.09"/>
  </g>
</svg>