<?xml version="1.0" encoding="UTF-8"?>
<svg id="Layer_2" data-name="Layer 2" xmlns="http://www.w3.org/2000/svg" viewBox="0 0 26.39 26.16">
  <defs>
    <style>
      .cls-1 {
        fill: #d83e5f;
        stroke-width: 0px;
      }
    </style>
  </defs>
  <g id="Layer_1-2" data-name="Layer 1">
    <g>
      <path class="cls-1" d="M17.74,13.42s-.12.1-.19.12c-.41.09-.63.34-.71.75-.04.21-.14.42-.26.6-.19.28-.21.55-.03.83.15.22.08.36-.1.55-.22.24-.41.31-.69.13-.24-.16-.47-.11-.72.03-.23.14-.49.26-.75.32-.34.08-.56.24-.61.57-.06.38-.34.29-.58.31-.25.03-.38-.07-.43-.3-.07-.34-.29-.51-.63-.58-.25-.05-.49-.16-.71-.29-.28-.17-.54-.2-.82-.02-.22.14-.38.12-.56-.09-.28-.32-.31-.31-.12-.7.12-.24.1-.44-.02-.67-.14-.24-.27-.5-.33-.77-.08-.34-.26-.56-.59-.62-.37-.07-.27-.33-.3-.56-.02-.24.05-.38.3-.43.34-.07.51-.28.59-.62.06-.27.2-.52.33-.77.13-.23.14-.43.02-.67-.19-.38-.16-.38.12-.7.18-.21.34-.23.56-.09.05.03.11.07.17.07.17,0,.35.02.5-.03.34-.11.66-.29,1.01-.4.3-.09.39-.32.49-.57.04-.1.11-.25.17-.26.22-.03.46-.03.68.03.08.02.12.22.16.34.08.26.25.4.51.47.28.08.56.18.8.33.27.15.51.2.77.03.26-.17.46-.12.64.12.07.1.18.18.25.26-.08.17-.17.3-.19.45-.03.18-.03.38.02.55.11.33.28.64.39.97.09.26.25.39.49.46.12.04.31.1.33.18.05.22.03.45,0,.68M18.64,12.54c0-.29-.1-.5-.4-.57-.36-.09-.55-.3-.69-.65-.15-.37-.2-.67.02-1.02.15-.24.07-.45-.12-.63-.27-.26-.54-.53-.81-.8-.2-.21-.41-.27-.66-.12-.33.2-.62.18-.98.02-.36-.16-.61-.33-.7-.72-.06-.27-.26-.38-.53-.38-.36,0-.73,0-1.09,0-.4,0-.5.06-.63.43-.1.32-.26.56-.62.62-.13.02-.24.12-.36.15-.11.03-.23.04-.34,0-.21-.06-.41-.16-.63-.25-.1.06-.22.1-.3.17-.32.3-.63.62-.94.93-.15.15-.2.34-.08.53.23.37.2.69.02,1.09-.15.32-.3.53-.64.61-.02,0-.03.01-.05.02-.28.08-.4.27-.39.55,0,.37,0,.74,0,1.11,0,.29.1.5.4.57.36.09.55.3.69.65.15.37.2.68-.02,1.02-.15.24-.08.45.12.63.28.26.55.53.81.8.2.21.41.27.66.12.32-.2.62-.18.98-.02.36.16.61.33.7.72.06.27.26.38.53.38.37,0,.74,0,1.12,0,.36,0,.48-.07.59-.41.11-.34.31-.52.65-.67.38-.17.7-.2,1.05.02.23.14.43.07.62-.12.25-.26.51-.51.77-.77.3-.3.33-.39.14-.76-.15-.29-.22-.56,0-.84.02-.02.02-.05.03-.07.07-.39.31-.6.69-.68.28-.06.4-.27.39-.55,0-.37,0-.74,0-1.11"/>
      <path class="cls-1" d="M25.5,25.3h-5.18v-6.94h4.13c.08.29.08.62.25.79.17.17.51.17.8.25v5.91ZM25.45,17.79c-.24-.18-.45-.3-.76-.3-1.49,0-2.97,0-4.46,0-.62,0-.81.18-.81.8,0,1.18,0,2.35,0,3.53,0,1.21,0,2.42,0,3.64,0,.49.22.7.72.7,1.84,0,3.68,0,5.53,0,.5,0,.7-.2.7-.71,0-1.82-.05-3.64.02-5.45.04-.93-.18-1.64-.93-2.21"/>
      <path class="cls-1" d="M.99,6.33c.1-1.02,1.39-2.05,2.63-2.1,1.36-.06,2.71.89,2.94,2.1H.99ZM3.77.85c.69,0,1.27.58,1.26,1.27,0,.69-.59,1.26-1.27,1.26-.69,0-1.26-.58-1.26-1.27,0-.68.59-1.26,1.27-1.26M7.53,6.68c-.2-1.31-.88-2.29-2.07-2.91-.07-.04-.14-.07-.21-.1.86-1.23.83-2.32-.07-3.12-.8-.71-2.01-.71-2.81-.01-.92.81-.96,1.9-.1,3.12,0,0,0,.02-.01.02-.04.02-.08.05-.11.07C1,4.3.29,5.2.04,6.44c-.12.59.02.75.63.75,2.06,0,4.13,0,6.19,0,.09,0,.18,0,.27,0,.28-.03.45-.24.4-.51"/>
      <path class="cls-1" d="M4.24,25.31c-1.86,0-3.4-1.55-3.39-3.39,0-1.84,1.56-3.37,3.41-3.36,1.86,0,3.4,1.55,3.39,3.39,0,1.84-1.56,3.37-3.41,3.36M4.25,17.72C1.9,17.72,0,19.6,0,21.93c0,2.34,1.89,4.22,4.24,4.22,2.36,0,4.26-1.87,4.27-4.2,0-2.36-1.89-4.24-4.25-4.24"/>
      <path class="cls-1" d="M22.59,6.65c-1.61,0-2.92-1.3-2.92-2.89,0-1.59,1.31-2.9,2.92-2.91,1.59,0,2.93,1.31,2.93,2.9,0,1.59-1.32,2.9-2.92,2.9M22.7,0c-2.12-.06-3.9,1.66-3.89,3.74,0,2.08,1.67,3.75,3.76,3.76,2.05.01,3.76-1.65,3.8-3.64C26.42,1.77,24.73.06,22.7,0"/>
      <path class="cls-1" d="M17.6,4.12c-.57.35-1.16.68-1.75,1-.21.12-.46.03-.57-.17-.11-.19-.06-.41.14-.56.08-.06.18-.11.27-.17,0-.02,0-.04,0-.05h-7.4c-.09,0-.18,0-.27,0-.23-.02-.4-.19-.4-.41,0-.21.17-.4.39-.42.08-.01.16,0,.24,0h7.51c-.15-.1-.24-.15-.33-.21-.19-.14-.25-.36-.14-.56.11-.2.36-.29.57-.17.59.33,1.19.66,1.77,1.01.29.17.27.54-.02.72"/>
      <path class="cls-1" d="M18.3,22.83c-.09.01-.18,0-.27,0-2.17,0-4.34,0-6.51,0h-.36c.15.09.24.15.33.21.2.14.25.36.14.56-.11.2-.36.29-.57.17-.59-.33-1.19-.66-1.77-1.02-.29-.18-.28-.54.02-.71.57-.35,1.16-.68,1.75-1,.22-.12.45-.04.57.17.11.2.06.42-.13.56-.09.07-.19.12-.28.17,0,.02.01.03.02.05h6.77c.09,0,.18,0,.27,0,.24.02.36.17.38.4.02.2-.15.4-.35.43"/>
      <path class="cls-1" d="M5.01,10.65c-.2.12-.44.07-.59-.13-.06-.08-.11-.17-.21-.25v6.12c0,.09,0,.18,0,.26-.02.23-.19.39-.42.39-.22,0-.41-.16-.43-.38,0-.08,0-.16,0-.24,0-1.96,0-3.92,0-5.88v-.28s-.03,0-.05-.01c-.06.1-.12.2-.19.28-.15.18-.39.22-.57.1-.18-.13-.27-.32-.15-.53.34-.6.67-1.19,1.03-1.77.17-.28.53-.27.71,0,.36.57.69,1.16,1.02,1.75.12.21.04.43-.15.55"/>
      <path class="cls-1" d="M23.97,14.84c-.33.59-.67,1.18-1.02,1.75-.19.3-.55.29-.74-.02-.34-.56-.67-1.13-1-1.71-.12-.22-.05-.45.15-.57.2-.12.44-.07.58.13.06.08.11.18.21.26v-.27c0-1.88,0-3.76,0-5.64,0-.31.17-.5.42-.5s.42.2.43.5v5.89s.03,0,.05,0c.06-.09.11-.18.17-.27.15-.19.37-.24.57-.12.2.11.28.34.17.54"/>
      <path class="cls-1" d="M13.18,15.35c-1.25,0-2.28-1.03-2.29-2.26,0-1.25,1.04-2.28,2.3-2.27,1.25,0,2.27,1.04,2.27,2.27,0,1.24-1.04,2.26-2.29,2.26M13.18,9.97c-1.74,0-3.13,1.39-3.14,3.11,0,1.74,1.4,3.12,3.16,3.12,1.74,0,3.13-1.4,3.12-3.12,0-1.72-1.4-3.1-3.14-3.1"/>
      <path class="cls-1" d="M4.93,24.13c-.15.05-.26.08-.26.28,0,.2-.22.38-.42.36-.22-.02-.4-.14-.41-.37,0-.18-.08-.23-.23-.28-.46-.16-.79-.46-.96-.92-.03-.07-.04-.15-.05-.19,0-.28.13-.42.35-.46.22-.04.41.06.46.27.15.61.95.66,1.37.46.34-.17.37-.51.04-.7-.18-.1-.39-.15-.59-.21-.21-.06-.43-.1-.64-.17-.57-.22-.88-.65-.88-1.19,0-.52.33-1,.87-1.21.16-.06.26-.12.26-.32,0-.2.22-.37.42-.35.22.02.4.14.4.38,0,.18.09.23.23.29.39.14.67.41.85.79.12.26.04.5-.18.61-.22.1-.44.02-.58-.21-.26-.43-.68-.57-1.1-.37-.18.09-.33.23-.28.43.03.14.16.3.29.36.24.1.51.14.76.2.37.1.72.25.97.55.59.72.25,1.69-.7,2"/>
      <path class="cls-1" d="M24.4,4.79c-.13.23-.37.28-.64.13-.45-.25-.89-.51-1.33-.76-.19-.1-.27-.26-.27-.47,0-.31,0-.61,0-.92s0-.63,0-.95c0-.28.18-.47.43-.46.25,0,.42.19.42.48,0,.5,0,1,0,1.5,0,.09.07.21.15.26.33.21.67.39,1.01.59.27.16.35.38.22.61"/>
    </g>
  </g>
</svg>