<?xml version="1.0" encoding="UTF-8"?>
<svg id="Layer_2" data-name="Layer 2" xmlns="http://www.w3.org/2000/svg" viewBox="0 0 30.97 29.86">
  <defs>
    <style>
      .cls-1 {
        fill: #d83e5f;
        stroke-width: 0px;
      }
    </style>
  </defs>
  <g id="Layer_1-2" data-name="Layer 1">
    <g>
      <path class="cls-1" d="M27.87,25.12c2.24-2.85,2.41-6.55.87-9.39-.02.27-.05.48-.06.69-.1,1.8-.57,3.5-1.38,5.11-.1.2-.14.38-.08.6.11.45.19.9.28,1.36.09.44-.08.76-.46.84-.35.08-.63-.14-.73-.58-.02-.11-.05-.21-.09-.37-.09.11-.15.19-.22.27-.49.56-.98,1.12-1.48,1.67-.31.33-.7.34-.95.07-.24-.26-.21-.63.1-.93,1.55-1.49,2.65-3.25,3.29-5.31.03-.09.05-.19.09-.33-.56.21-1.09.41-1.61.6-.14.05-.29.09-.43.07-.29-.04-.47-.22-.5-.52-.03-.31.1-.53.39-.64.64-.25,1.27-.52,1.92-.72.44-.13.64-.35.63-.81-.02-.85,0-1.71,0-2.62-.33.06-.64.1-.93.18-3.6,1.05-5.76,3.42-6.45,7.1-.17.92-.15,1.86.04,2.79.27,1.36.24,2.7-.18,4.05,2.29.44,5.75-.34,7.97-3.17M18.51,28.55c.03-.09.07-.19.1-.28.37-1.06.51-2.16.32-3.27-.22-1.32-.35-2.64-.07-3.96.85-4.08,3.29-6.7,7.29-7.87.34-.1.69-.16,1.1-.25-.25-.75-.49-1.46-.74-2.17-.15-.43-.05-.77.3-.91.35-.14.68,0,.82.44.3.9.55,1.82.84,2.73.04.13.09.26.18.37.97,1.18,1.66,2.51,2.02,4,.12.49.19.98.29,1.47v1.75c-.05.28-.09.57-.15.85-.87,4-3.24,6.64-7.17,7.81-1.53.46-3.1.46-4.66.11-.44-.1-.61-.42-.48-.84"/>
      <path class="cls-1" d="M1.83,22.61c1.46,3.62,4.79,5.39,7.69,5.44-.07-.06-.12-.1-.17-.13-1.69-1.05-3.09-2.42-4.19-4.08-.07-.11-.21-.21-.34-.26-.47-.17-.95-.32-1.42-.49-.4-.14-.59-.47-.46-.82.12-.33.45-.46.85-.34.11.03.23.07.36.11-.21-.58-.41-1.13-.6-1.68-.09-.28-.16-.56-.23-.84-.09-.35.1-.68.41-.76.35-.09.64.09.77.46.29.83.54,1.68.89,2.49.49,1.15,1.21,2.15,2.06,3.07.07.08.12.18.18.27.03-.02.07-.05.1-.07.09-.54.18-1.09.27-1.63.07-.43.34-.68.7-.63.39.05.58.35.51.8-.11.71-.22,1.43-.35,2.14-.05.27,0,.44.24.6.77.56,1.57,1.04,2.46,1.42.36-.82.56-1.68.61-2.55.17-2.74-.7-5.09-2.69-7-.84-.81-1.82-1.42-2.93-1.82-1.45-.53-1.73-.7-3.47-2.17-1.66,1.9-2.5,5.34-1.23,8.47M2.46,12.89c.41-.47.77-.48,1.17.01.85,1.04,1.92,1.76,3.18,2.2,1.84.64,3.36,1.74,4.53,3.28,1.64,2.16,2.32,4.6,1.96,7.29-.11.82-.35,1.62-.53,2.45,0,0,.07.03.13.05.72.16,1.43.31,2.15.47.36.08.58.37.53.69-.07.36-.39.59-.76.51-.94-.21-1.87-.44-2.81-.66-.14-.03-.3-.06-.44-.03-1.14.2-2.28.19-3.42,0C3.72,28.38.29,24.58.02,20.1c-.16-2.73.64-5.14,2.44-7.21"/>
      <path class="cls-1" d="M4.35,9.87c.28.21.63.13.9-.18.5-.58,1.01-1.15,1.54-1.76.11.12.18.2.25.28,2.16,2.48,4.88,3.68,8.17,3.52,2.25-.11,4.22-.96,5.92-2.42,1-.85,2.14-1.38,3.43-1.58.55-.09.77-.42.59-.94-.32-.96-.77-1.85-1.36-2.68-.17-.24-.39-.36-.68-.29-.26.06-.45.24-.45.51,0,.18.09.38.18.55.32.57.65,1.13.96,1.66-.72.3-1.41.54-2.04.87-.51.27-.99.61-1.44.99-1.83,1.55-3.95,2.28-6.33,2.11-2.53-.18-4.59-1.31-6.22-3.31.85-.64,1.73-1.13,2.68-1.5.09-.03.25.04.34.11.59.47,1.17.95,1.76,1.43.35.29.72.27.96-.03.22-.28.15-.65-.18-.92-.43-.35-.85-.7-1.35-1.1.3-.07.53-.14.77-.18,1.95-.35,3.89-.28,5.79.28.54.16.94-.13.89-.63-.03-.29-.2-.46-.47-.52-.74-.16-1.49-.31-2.24-.47-.1-.02-.21-.04-.36-.07.15-.14.26-.24.36-.34.25-.26.26-.59.04-.84-.22-.25-.57-.29-.84-.07-.36.29-.71.6-1.04.92-.23.22-.48.32-.8.34-1.67.09-3.25.53-4.76,1.23-.27.13-.53.27-.8.4-.02-.02-.04-.04-.06-.05.29-.37.56-.77.88-1.11,1.85-2.01,4.15-2.94,6.88-2.84.82.03,1.61.2,2.39.45.47.15.81.04.93-.32.13-.37-.06-.68-.52-.83-4.95-1.7-10.53.66-12.52,5.9-.06.16-.18.31-.29.44-.63.69-1.29,1.36-1.91,2.05-.28.32-.23.71.07.93"/>
      <path class="cls-1" d="M20.74,2.47c0,.35.26.61.61.6.33,0,.59-.26.6-.59,0-.34-.27-.61-.6-.62-.35,0-.61.26-.61.61"/>
    </g>
  </g>
</svg>