<?xml version="1.0" encoding="UTF-8"?>
<svg id="Layer_2" data-name="Layer 2" xmlns="http://www.w3.org/2000/svg" viewBox="0 0 30.86 21.7">
  <defs>
    <style>
      .cls-1 {
        fill: #d83e5f;
        strokeWidth: 0px;
      }
    </style>
  </defs>
  <g id="Layer_1-2" data-name="Layer 1">
    <g>
      <path class="cls-1" d="M19.29,3.69c0,.35-.18.55-.48.55-.3,0-.48-.2-.48-.55,0-.71,0-1.42,0-2.12,0-.46-.17-.63-.63-.63-5.36,0-10.73,0-16.09,0-.46,0-.64.17-.64.62,0,3.36,0,6.72,0,10.08,0,.45.18.62.64.62.54,0,1.08,0,1.63,0,.5,0,.68.2.61.71-.09.71-.19,1.42-.28,2.13,0,.04,0,.08,0,.16.08-.06.14-.09.19-.14,1.02-.88,2.02-1.77,3.05-2.63.14-.12.37-.21.56-.21,1.04-.02,2.09-.01,3.13-.01.39,0,.59.16.6.46,0,.31-.2.48-.58.48-.91,0-1.83,0-2.74,0-.24,0-.41.06-.59.22-1.29,1.13-2.58,2.25-3.87,3.37-.27.24-.57.27-.74.05-.1-.13-.15-.35-.14-.51.09-.83.2-1.65.31-2.48.03-.2.05-.41.09-.64h-1.24c-.79,0-1.22-.28-1.52-1-.01-.02-.04-.04-.06-.06V1.06C.2.63.46.24.96.08,1.12.03,1.29,0,1.46,0,6.91,0,12.36,0,17.82,0c.84,0,1.46.6,1.47,1.42,0,.76,0,1.51,0,2.27"/>
      <path class="cls-1" d="M29.89,16.28c0,.55-.15.69-.72.7-.51,0-1.02,0-1.54,0-.51,0-.69.19-.63.69.09.7.19,1.4.28,2.1,0,.06,0,.11,0,.23-1.1-.95-2.15-1.86-3.19-2.78-.19-.17-.39-.24-.65-.24-3.39,0-6.79,0-10.18,0-.59,0-.73-.14-.73-.71V6.37c0-.57.14-.71.73-.71h15.91c.57,0,.72.15.72.69,0,3.31,0,6.62,0,9.93M29.32,4.72H13.11c-.94,0-1.54.58-1.54,1.5v10.19c0,.92.59,1.5,1.54,1.51,3.31,0,6.63,0,9.94,0,.27,0,.47.07.67.25,1.26,1.11,2.53,2.21,3.8,3.31.2.18.4.3.67.16.27-.14.28-.39.24-.64-.13-1.01-.26-2.02-.4-3.08h1.29c.94,0,1.54-.58,1.54-1.51,0-3.4,0-6.8,0-10.19,0-.92-.59-1.5-1.54-1.5"/>
      <path class="cls-1" d="M14.34,3.6c-.07.1-.27.16-.42.17-3.65,0-7.31,0-10.96,0-.35,0-.55-.19-.54-.48,0-.28.21-.46.54-.46,1.83,0,3.65,0,5.48,0s3.65,0,5.48,0c.24,0,.44.07.5.29.04.15,0,.36-.08.48"/>
      <path class="cls-1" d="M9.94,5.55c-.1.07-.24.1-.36.1-2.21,0-4.42,0-6.62,0-.35,0-.55-.18-.55-.48,0-.28.21-.45.54-.46,1.11,0,2.23,0,3.34,0s2.21,0,3.31,0c.24,0,.41.1.49.31.07.2.03.4-.16.52"/>
      <path class="cls-1" d="M10.12,7.54c0,.31-.21.47-.59.47-1.09,0-2.19,0-3.28,0s-2.17,0-3.25,0c-.39,0-.59-.17-.59-.47s.2-.47.59-.47c2.18,0,4.36,0,6.53,0,.39,0,.59.16.59.47"/>
      <path class="cls-1" d="M6.75,9.92c0,.28-.21.46-.54.46-1.08,0-2.16,0-3.25,0-.35,0-.55-.18-.55-.48,0-.28.21-.46.54-.46.54,0,1.08,0,1.62,0s1.08,0,1.62,0c.35,0,.55.18.55.48"/>
      <path class="cls-1" d="M16.87,3.31c0,.27-.19.45-.48.46-.32,0-.64,0-.96,0-.3,0-.49-.2-.49-.48,0-.27.2-.45.51-.46.16,0,.32,0,.48,0,.15,0,.3,0,.45,0,.3.01.49.2.49.48"/>
      <path class="cls-1" d="M21.95,14.48c-.08.03-.17.07-.24.09-.06.83-.14.98-.49.99-.36,0-.44-.15-.51-.99-.72-.24-1.22-.7-1.39-1.44-.03-.13-.04-.27-.04-.41,0-.27.19-.45.45-.46.27-.01.48.15.51.43.04.43.22.76.64.91.37.14.72.06,1-.21.29-.28.37-.63.22-1-.16-.39-.47-.56-.89-.61-.26-.03-.53-.05-.76-.15-.76-.33-1.17-.91-1.17-1.73,0-.82.41-1.39,1.16-1.74.09-.04.18-.07.27-.11.06-.83.14-.98.48-.98.36,0,.44.15.51.99.72.24,1.22.69,1.39,1.44.03.13.04.27.04.41,0,.26-.19.45-.45.46-.27.01-.48-.15-.51-.43-.04-.43-.21-.76-.64-.91-.39-.14-.74-.05-1.02.23-.27.28-.35.62-.2.98.16.4.49.59.92.6.61.02,1.11.25,1.49.72.8.99.41,2.43-.77,2.92"/>
    </g>
  </g>
</svg>