<?xml version="1.0" encoding="UTF-8"?>
<svg id="Layer_2" data-name="Layer 2" xmlns="http://www.w3.org/2000/svg" viewBox="0 0 23.86 20.56">
  <defs>
    <style>
      .cls-1 {
        fill: #d83e5f;
        stroke-width: 0px;
      }
    </style>
  </defs>
  <g id="Layer_1-2" data-name="Layer 1">
    <g>
      <path class="cls-1" d="M22.6,2.04h-9c-.18,0-.36-.07-.49-.18l-1.65-1.43c-.32-.28-.73-.43-1.15-.43h-5.92c-.69,0-1.25.57-1.25,1.26v1.68h-1.89c-.69,0-1.25.57-1.25,1.26v15.1c0,.69.56,1.26,1.25,1.26h18.2c.69,0,1.25-.57,1.25-1.26v-1.68h1.89c.69,0,1.25-.57,1.25-1.26V3.3c0-.7-.56-1.26-1.25-1.26M1.25,3.95h5.91c.18,0,.36.07.49.18l1.65,1.43c.32.28.73.43,1.15.43h9c.14,0,.25.11.25.25v1.69H1v-3.73c0-.14.11-.25.25-.25M19.46,19.55H1.25c-.14,0-.25-.11-.25-.25v-10.36h18.7v10.36c0,.14-.11.25-.25.25M22.85,16.36c0,.14-.11.25-.25.25h-1.89V6.25c0-.69-.56-1.26-1.25-1.26h-9c-.18,0-.35-.07-.49-.18l-1.65-1.43c-.32-.28-.73-.43-1.15-.43h-3.02v-1.68c0-.14.11-.25.25-.25h5.92c.18,0,.35.07.49.18l1.65,1.43c.32.28.73.43,1.15.43h9c.14,0,.25.11.25.25v13.05Z"/>
      <path class="cls-1" d="M12.51,13.74h-1.65v-1.66c0-.28-.22-.5-.5-.5s-.5.23-.5.5v1.66h-1.65c-.28,0-.5.23-.5.5s.23.5.5.5h1.65v1.66c0,.28.23.5.5.5s.5-.23.5-.5v-1.66h1.65c.28,0,.5-.23.5-.5s-.22-.5-.5-.5"/>
    </g>
  </g>
</svg>