<?xml version="1.0" encoding="UTF-8"?>
<svg id="Layer_2" data-name="Layer 2" xmlns="http://www.w3.org/2000/svg" viewBox="0 0 25.1 30.47">
  <defs>
    <style>
      .cls-1 {
        fill: #d83e5f;
        strokeWidth: 0px;
      }
    </style>
  </defs>
  <g id="Layer_1-2" data-name="Layer 1">
    <g>
      <path class="cls-1" d="M4.26,7.5c-.14,0-.28,0-.42,0h.87c-.15,0-.3,0-.45,0"/>
      <path class="cls-1" d="M18.82,9.88c1.44-1.46,2.87-2.93,4.32-4.39.12-.12.28-.23.43-.27.33-.08.61.18.66.56-.08.15-.14.32-.25.44-1.71,1.75-3.42,3.49-5.13,5.24-.3.3-.6.3-.9,0-.79-.79-1.57-1.59-2.35-2.4-.26-.27-.28-.61-.06-.85.24-.26.56-.24.85.05.53.54,1.06,1.08,1.59,1.62.32.32.52.32.84,0M13.48,4.14c-1.05-.01-2.1,0-3.15,0s-2.08,0-3.12,0c-.27,0-.39-.06-.38-.36.02-.6,0-1.19,0-1.78,0-.69.4-1.1,1.07-1.1,1.61,0,3.23,0,4.84,0,.65,0,1.04.4,1.04,1.05,0,.62,0,1.25,0,1.87,0,.25-.08.32-.32.32M16.97,7.57c-.59-.58-1.48-.58-2.05,0-.57.58-.58,1.47,0,2.08.81.84,1.63,1.68,2.46,2.5.6.6,1.45.6,2.04,0,1.76-1.77,3.51-3.55,5.25-5.34.59-.6.58-1.5.01-2.08-.58-.59-1.46-.59-2.07.01-.19.18-.36.39-.52.56-.34-.2-.62-.43-.93-.54-.42-.15-.52-.4-.51-.84.03-.92-.62-1.54-1.52-1.54-1.36,0-2.72,0-4.09,0h-.34c0-.18,0-.32,0-.47-.02-.58-.2-1.1-.66-1.46-.25-.19-.56-.31-.84-.45h-5.78s-.06.05-.09.06c-.89.3-1.36.96-1.37,1.91,0,.64,0,1.27,0,1.9,0,.76.41,1.18,1.15,1.18,2.14,0,4.28,0,6.42,0,.73,0,1.16-.43,1.17-1.18,0-.19,0-.39,0-.6h.28c1.34,0,2.69,0,4.03,0,.62,0,.85.31.7.96-1.75-.28-3.34.1-4.7,1.31-1.35,1.2-2,2.74-1.92,4.56.14,3.3,3.12,5.96,6.65,5.33,0,.09.02.18.02.26,0,4.38,0,8.77,0,13.15,0,.54-.19.73-.76.73H1.66c-.59,0-.78-.2-.78-.81,0-8.23,0-16.46,0-24.69,0-.6.19-.79.76-.79.88,0,1.75,0,2.63,0,.35,0,.53-.16.52-.45,0-.29-.19-.44-.54-.44-.93,0-1.87,0-2.8,0C.62,2.39,0,3.03,0,3.88,0,12.25,0,20.62,0,28.99c0,.85.62,1.48,1.46,1.48,5.91,0,11.82,0,17.73,0,.12,0,.23,0,.35-.03.71-.18,1.13-.76,1.13-1.56,0-4.47,0-8.95,0-13.42,0-.23.08-.32.27-.44.55-.33,1.12-.65,1.58-1.09,1.09-1.02,1.65-2.33,1.72-3.84.01-.26-.09-.45-.35-.5-.29-.06-.5.12-.53.47-.19,2.9-2.49,4.51-4.59,4.55-2.86.05-5.18-2.57-4.74-5.46.48-3.2,3.82-5.01,6.69-3.61.24.11.46.27.63.37-1.02,1.03-2,2.04-3.01,3.07-.44-.45-.89-.94-1.37-1.41"/>
      <path class="cls-1" d="M3.74,13.54c-.48,0-.88-.39-.88-.87,0-.5.38-.92.86-.93.47-.01.89.4.9.9,0,.5-.39.91-.88.91M3.75,10.83c-.99,0-1.79.79-1.8,1.8-.01.99.8,1.82,1.77,1.83.98,0,1.78-.82,1.78-1.82,0-.99-.79-1.8-1.76-1.8"/>
      <path class="cls-1" d="M3.72,19.03c-.48-.01-.88-.43-.87-.93,0-.48.4-.88.88-.88.49,0,.89.41.89.91,0,.49-.42.91-.89.9M3.73,16.31c-.97,0-1.76.81-1.77,1.8-.01.99.79,1.82,1.77,1.83.99,0,1.78-.8,1.78-1.81,0-1-.8-1.82-1.78-1.82"/>
      <path class="cls-1" d="M3.72,24.46c-.47,0-.86-.41-.86-.9,0-.51.38-.9.88-.9.5,0,.88.39.88.9,0,.5-.41.91-.9.9M3.74,21.73c-.97,0-1.79.83-1.79,1.82,0,.99.79,1.8,1.76,1.8,1,0,1.79-.78,1.79-1.79.01-1-.79-1.83-1.77-1.83"/>
      <path class="cls-1" d="M14.23,24.59c0,.25-.15.4-.39.45-.09.02-.18,0-.26,0h-3.39c-1.14,0-2.28,0-3.42,0-.11,0-.27.01-.33-.05-.12-.12-.26-.28-.28-.44-.02-.2.12-.37.35-.4.12-.02.25-.02.38-.02,2.2,0,4.4,0,6.6,0,.12,0,.23,0,.35.02.25.03.39.2.39.44"/>
      <path class="cls-1" d="M14.24,17.09c0,.24-.19.43-.46.46-.02,0-.04,0-.06,0-2.36,0-4.71,0-7.07,0-.3,0-.51-.2-.51-.46s.2-.45.51-.45c1.18,0,2.36,0,3.53,0h0s3.33,0,3.33,0c.09,0,.17,0,.26,0,.27.02.45.21.45.45"/>
      <path class="cls-1" d="M12.38,11.69c-.02.27-.19.4-.44.43-.08.01-.15,0-.23,0h-2.45c-.83,0-1.65,0-2.48,0-.11,0-.26.01-.34-.05-.12-.1-.28-.27-.27-.4,0-.15.16-.31.29-.42.07-.06.22-.05.34-.05,1.64,0,3.29,0,4.93,0,.08,0,.16,0,.23,0,.27.04.44.23.42.48"/>
      <path class="cls-1" d="M12.06,14.16c-.11.03-.23.04-.35.04-1.63,0-3.27,0-4.9,0h-.09c-.37,0-.59-.19-.58-.47.01-.27.23-.45.58-.45.85,0,1.69,0,2.54,0s1.69-.01,2.54,0c.17,0,.39.09.5.22.2.22.05.57-.24.65"/>
      <path class="cls-1" d="M12.38,22.52c0,.29-.2.44-.57.44-1.7,0-3.4,0-5.1,0-.35,0-.57-.18-.56-.46,0-.27.21-.44.55-.44.86,0,1.73,0,2.6,0s1.69,0,2.54,0c.37,0,.56.16.56.45"/>
      <path class="cls-1" d="M10.07,19.62c-.81,0-1.62,0-2.42,0-.32,0-.64,0-.96,0-.32,0-.54-.2-.54-.46,0-.26.22-.45.54-.46.56,0,1.13,0,1.69,0s1.15,0,1.72,0c.33,0,.51.17.53.43.02.3-.19.49-.56.49"/>
      <path class="cls-1" d="M6.19,7.06c0,.28-.18.44-.5.44-.33,0-.65,0-.98,0h-.45c-.14,0-.28,0-.42,0-.33,0-.65,0-.98,0-.31,0-.51-.18-.51-.45,0-.26.2-.44.51-.44.94,0,1.89,0,2.83,0,.32,0,.5.17.5.45"/>
    </g>
  </g>
</svg>