<?xml version="1.0" encoding="UTF-8"?>
<svg id="Layer_2" data-name="Layer 2" xmlns="http://www.w3.org/2000/svg" viewBox="0 0 23.86 26.45">
  <defs>
    <style>
      .cls-1 {
        fill: #d83e5f;
        stroke-width: 0px;
      }
    </style>
  </defs>
  <g id="Layer_1-2" data-name="Layer 1">
    <g>
      <path class="cls-1" d="M14.46,4.76c-.96,0-1.77-.81-1.75-1.75.02-.96.81-1.73,1.77-1.72.96,0,1.77.81,1.75,1.75-.02.96-.8,1.73-1.77,1.72M16.35.63c-.43-.34-.94-.5-1.46-.63h-.83s-.08.04-.12.05c-1.45.23-2.62,1.55-2.51,3.13.12,1.68,1.42,2.87,3.06,2.86,1.31,0,2.46-.82,2.88-2.06.42-1.21,0-2.56-1.02-3.36"/>
      <path class="cls-1" d="M22.25,20.29c-.41.29-.83.57-1.24.85-1.58,1.07-3.14,2.14-4.73,3.2-.86.57-1.82.83-2.85.83-1.21,0-2.41,0-3.62,0-1.24,0-2.35-.37-3.33-1.11-.41-.31-.81-.62-1.2-.95-.06-.05-.12-.15-.12-.23,0-1.58,0-3.17,0-4.75,0-.03,0-.07.02-.12.66.21,1.32.4,1.96.62,1.24.42,2.52.61,3.83.6,1.19-.01,2.38,0,3.57,0,.61,0,.8.19.8.78,0,.64,0,.65-.64.77-1.22.24-2.46.31-3.7.15-.41-.05-.73.18-.79.56-.04.32.22.64.59.7,1.62.24,3.22.12,4.79-.29.4-.1.79-.25,1.16-.43,1.57-.74,3.13-1.51,4.7-2.26.18-.08.4-.12.59-.1.27.04.44.24.49.51.06.29-.05.53-.29.7M3.84,25.04H1.32v-8.81h2.52v8.81ZM23.15,18.25c-.68-.56-1.44-.63-2.24-.25-1.33.64-2.66,1.28-3.99,1.92-.09.04-.18.08-.28.12,0-.12-.02-.2-.02-.27,0-1.03-.88-1.87-1.98-1.86-1.33.01-2.66.01-3.98,0-.52,0-1.05-.01-1.55-.14-1.28-.33-2.54-.72-3.81-1.09-.06-.02-.13-.13-.14-.2-.02-.29,0-.59,0-.88-.02-.46-.24-.67-.7-.67-1.22,0-2.45,0-3.67,0-.52,0-.78.26-.78.78v9.76c0,.59.28.86.87.86,1.16,0,2.33,0,3.49,0,.53,0,.78-.24.78-.77,0-.28,0-.56,0-.9.12.09.2.15.27.21,1.34,1.08,2.86,1.61,4.59,1.58,1.17-.02,2.34,0,3.52,0,1.05,0,2.06-.23,2.96-.76.89-.52,1.73-1.11,2.59-1.68,1.31-.88,2.61-1.76,3.91-2.65,1.1-.76,1.18-2.27.18-3.11"/>
      <path class="cls-1" d="M9.36,9.92c-.97.05-1.77-.69-1.83-1.68-.05-.88.69-1.71,1.55-1.79,1.01-.09,1.88.62,1.95,1.67.06.9-.73,1.75-1.67,1.8M9.3,5.16c-1.69-.02-3.07,1.33-3.08,3.02-.01,1.64,1.36,3.02,3.01,3.03,1.7.01,3.08-1.33,3.1-2.99.02-1.67-1.34-3.04-3.04-3.06"/>
      <path class="cls-1" d="M14.54,15.14c-.97,0-1.75-.78-1.75-1.74,0-.96.78-1.73,1.75-1.73.97,0,1.76.78,1.76,1.73s-.8,1.74-1.76,1.74M14.54,10.38c-1.69,0-3.04,1.33-3.05,3.01-.02,1.67,1.36,3.04,3.05,3.04,1.69,0,3.06-1.37,3.06-3.04,0-1.66-1.38-3.01-3.05-3.01"/>
    </g>
  </g>
</svg>