<?xml version="1.0" encoding="UTF-8"?>
<svg id="Layer_2" data-name="Layer 2" xmlns="http://www.w3.org/2000/svg" viewBox="0 0 28.52 28.48">
  <defs>
    <style>
      .cls-1 {
        fill: #d83e5f;
        stroke-width: 0px;
      }
    </style>
  </defs>
  <g id="Layer_1-2" data-name="Layer 1">
    <g>
      <path class="cls-1" d="M.99,26.23c.11.62.49,1.03,1.08,1.22.67.22,1.3,0,1.78-.63.86-1.12,1.72-2.25,2.58-3.38.48-.62.96-1.25,1.43-1.87-.32-.32-.62-.62-.95-.95-.21.16-.45.34-.69.52-1.54,1.17-3.08,2.35-4.61,3.52-.51.39-.74.91-.62,1.56M16.14,23.73c6.33-.04,11.4-5.11,11.39-11.4,0-6.26-5.16-11.38-11.43-11.36-6.26.02-11.35,5.14-11.34,11.39.02,6.3,5.13,11.41,11.38,11.37M1.13,23.82c1.31-.97,2.59-1.97,3.89-2.96.44-.33.87-.67,1.31-1.01C2.2,14.35,3.36,7.06,8.06,2.99c4.73-4.1,11.91-3.95,16.47.24,4.72,4.34,5.23,11.49,1.64,16.37-1.91,2.59-4.45,4.24-7.61,4.86-3.63.71-6.93-.11-9.92-2.29-.05.06-.09.1-.13.16-1.3,1.71-2.61,3.41-3.91,5.12-.37.48-.84.8-1.42.97-.08.02-.16.05-.23.08h-.83c-.14-.04-.28-.08-.41-.13-.85-.32-1.4-.93-1.64-1.8-.02-.06-.04-.12-.06-.18v-.83c.18-.7.54-1.28,1.13-1.72"/>
      <path class="cls-1" d="M13.57,22.48c5.31,1.32,10.58-1.51,12.43-6.65.4-1.11.6-2.27.59-3.5.03-4.71-3.23-8.91-7.87-10.08-.35-.09-.6.03-.68.33-.07.27.1.52.44.6.98.25,1.89.63,2.74,1.18,2.33,1.52,3.79,3.64,4.26,6.38.83,4.89-2.09,9.43-6.86,10.76-5.17,1.44-10.64-1.87-11.73-7.11-1.06-5.08,1.93-9.93,6.94-11.21.74-.19,1.53-.21,2.3-.31.41-.05.64-.42.41-.72-.1-.13-.33-.23-.49-.23-1.36,0-2.67.25-3.91.79-3.31,1.45-5.43,3.94-6.2,7.47-1.21,5.54,2.25,10.95,7.65,12.29"/>
      <path class="cls-1" d="M11.1,16.16c1.68-.03,3.37-.01,5.06-.01s3.37-.02,5.06,0c.59.01.71-.46.49-.85-1.72-2.92-3.42-5.84-5.12-8.76-.28-.47-.61-.47-.89,0-1.7,2.91-3.39,5.83-5.1,8.74-.26.44-.08.88.5.87M9.73,14.88c1.72-2.96,3.44-5.91,5.17-8.87.61-1.05,1.87-1.05,2.48,0,.35.6.7,1.2,1.05,1.8,1.37,2.35,2.74,4.7,4.11,7.04.18.31.3.64.25,1-.12.79-.66,1.25-1.48,1.25-1.71,0-3.43,0-5.14,0s-3.39,0-5.09,0c-.18,0-.38,0-.55-.05-.93-.25-1.31-1.28-.79-2.17"/>
      <path class="cls-1" d="M1.87,26.18c.08.1.16.28.3.34.14.06.36.04.48-.04.22-.15.4-.35.57-.56.16-.18.14-.4-.02-.58-.14-.16-.34-.27-.51-.13-.28.22-.51.49-.76.75-.03.03-.03.1-.06.23"/>
      <path class="cls-1" d="M15.65,12.25c0,.37.19.59.48.59.3,0,.49-.23.49-.61,0-.51,0-1.01,0-1.52s0-1.04,0-1.55c0-.36-.19-.59-.48-.59-.29,0-.49.22-.49.58,0,1.04,0,2.07,0,3.1"/>
      <path class="cls-1" d="M15.66,14.76c.04.29.23.45.51.44.25-.01.43-.2.45-.47,0-.08,0-.17,0-.25,0-.46-.16-.7-.47-.71-.32-.01-.5.24-.5.72,0,.09,0,.18.01.28"/>
    </g>
  </g>
</svg>