<?xml version="1.0" encoding="UTF-8"?>
<svg id="Layer_2" data-name="Layer 2" xmlns="http://www.w3.org/2000/svg" viewBox="0 0 20.95 24.63">
  <defs>
    <style>
      .cls-1 {
        fill: #d83e5f;
        strokeWidth: 0px;
      }
    </style>
  </defs>
  <g id="Layer_1-2" data-name="Layer 1">
    <g>
      <path class="cls-1" d="M6.56,5.47s0-.03,0-.04c.17-3.66,2.77-4.05,3.88-4.05h.06c1.38.03,3.72.59,3.88,4.05,0,.02,0,.03,0,.04,0,.04.36,3.5-1.26,5.33-.64.73-1.5,1.08-2.63,1.09h-.05c-1.12-.01-1.98-.37-2.62-1.09-1.62-1.82-1.27-5.3-1.27-5.33M10.39,13.27h.16c1.49-.02,2.7-.55,3.6-1.56,1.96-2.21,1.64-6.01,1.6-6.37-.13-2.72-1.41-4.02-2.47-4.63-.79-.45-1.71-.7-2.74-.72h-.09c-.57,0-1.68.09-2.74.7-1.07.61-2.38,1.91-2.51,4.65-.03.36-.36,4.16,1.6,6.37.89,1.01,2.1,1.53,3.59,1.56"/>
      <path class="cls-1" d="M20.95,19.57h0c0-.06,0-.1,0-.14-.03-1.01-.1-3.37-2.31-4.13-.02,0-.03,0-.05-.02-2.3-.59-4.21-1.91-4.23-1.93-.31-.22-.74-.14-.96.17-.22.31-.14.74.17.96.09.06,2.12,1.47,4.66,2.13,1.19.42,1.32,1.69,1.36,2.86,0,.05,0,.09,0,.13,0,.46-.03,1.17-.11,1.58-.83.47-4.07,2.09-8.99,2.09s-8.17-1.63-9-2.1c-.08-.41-.12-1.12-.11-1.58,0-.04,0-.08,0-.13.04-1.16.17-2.43,1.36-2.86,2.54-.65,4.57-2.07,4.66-2.13.31-.22.39-.65.17-.96-.22-.31-.65-.39-.96-.17-.02.02-1.92,1.34-4.23,1.93-.02,0-.04.01-.05.02C.1,16.05.04,18.41,0,19.42c0,.05,0,.09,0,.13H0c0,.28-.01,1.64.26,2.33.05.13.14.24.27.32.15.1,3.82,2.44,9.96,2.44s9.8-2.34,9.96-2.44c.12-.08.21-.19.26-.32.26-.68.25-2.04.25-2.31"/>
    </g>
  </g>
</svg>