<?xml version="1.0" encoding="UTF-8"?>
<svg id="Layer_2" data-name="Layer 2" xmlns="http://www.w3.org/2000/svg" viewBox="0 0 39.5 37.98">
  <defs>
    <style>
      .cls-1 {
        fill: #d94766;
        strokeWidth: 0px;
      }
    </style>
  </defs>
  <g id="Layer_1-2" data-name="Layer 1">
    <path class="cls-1" d="M27.15,25.63c-.67.52-1.31,1.07-2.01,1.65-1-.82-1.94-1.61-2.89-2.39-.54-.45-1.08-.89-1.62-1.34-.68-.56-1.07-.57-1.74-.01-1.39,1.14-2.77,2.29-4.15,3.43-.12.1-.24.18-.33.25-.77-.64-1.51-1.26-2.31-1.92,2.51-2.96,5.06-5.97,7.65-9.02.11.13.21.23.3.33,2.38,2.81,4.76,5.63,7.15,8.43.2.23.22.37-.05.58M20.69,1.49h8.14c-.14.18-.25.33-.37.48-.43.53-.85,1.07-1.3,1.6-.29.35-.29.68,0,1.03.56.67,1.09,1.35,1.67,2.06h-8.14V1.49ZM39.38,36.86c-.1-.15-.23-.29-.35-.43-6.04-7.14-12.1-14.27-18.13-21.41-.13-.16-.22-.38-.23-.57-.01-1.98,0-3.96,0-5.93,0-.11.01-.22.02-.35h.51c3.04,0,6.08,0,9.11,0,.43,0,.8-.07,1.02-.41.21-.33.07-.61-.16-.9-.68-.83-1.33-1.67-2.02-2.49-.19-.22-.17-.37,0-.58.67-.8,1.32-1.62,1.97-2.44.5-.61.42-.94-.32-1.35h-11.31c-.49.22-.64.55-.64,1,.01,4.46.01,8.93,0,13.39,0,.22-.1.46-.25.64-4.18,4.94-8.36,9.89-12.55,14.82-1.92,2.27-3.84,4.54-5.76,6.8-.22.26-.39.53-.21.86.19.35.54.46.98.46h14.5c.09,0,.18,0,.27-.01.45-.06.79-.38.78-.74,0-.37-.35-.68-.8-.72-.15-.01-.3,0-.45,0H2.62c2.83-3.33,5.59-6.59,8.39-9.9.86.71,1.69,1.41,2.52,2.09.63.52,1.05.52,1.67,0,1.4-1.15,2.79-2.3,4.19-3.46.11-.09.23-.18.44-.34.11.14.19.26.31.36,1.37,1.14,2.74,2.28,4.12,3.41.69.57,1.07.57,1.77-.01.73-.6,1.46-1.2,2.19-1.81.09-.07.19-.14.3-.21,2.79,3.29,5.55,6.55,8.36,9.86h-12.72c-.17,0-.33,0-.5.01-.43.05-.76.35-.77.71-.01.37.31.7.77.76.15.02.3.01.45.01h14.19c.12,0,.24,0,.36,0,.68-.05,1.05-.62.72-1.12"/>
    <path class="cls-1" d="M20.65,37.2c.03.41-.38.77-.88.77-.5.01-.92-.33-.91-.75,0-.39.39-.72.87-.73.48-.01.89.31.91.7"/>
  </g>
</svg>