<?xml version="1.0" encoding="UTF-8"?>
<svg id="Layer_2" data-name="Layer 2" xmlns="http://www.w3.org/2000/svg" viewBox="0 0 37.12 26.56">
  <defs>
    <style>
      .cls-1 {
        fill: none;
        stroke: #d94766;
        stroke-miterlimit: 10;
        stroke-width: 2px;
      }
    </style>
  </defs>
  <g id="Layer_1-2" data-name="Layer 1">
    <path class="cls-1" d="M35.48,5.83c-.21.26-.47.51-.7.74-5.88,5.88-11.74,11.75-17.62,17.62-1.84,1.84-3.35,1.84-5.19.01-3.32-3.33-6.64-6.64-9.96-9.96-.9-.9-1.23-1.93-.85-3.16.37-1.17,1.22-1.85,2.43-2.03,1.1-.17,1.98.28,2.75,1.06,2.48,2.5,4.97,4.98,7.44,7.47.25.23.43.53.81,1.02.35-.47.52-.81.79-1.07,5.11-5.13,10.24-10.25,15.35-15.39.84-.84,1.79-1.33,3.01-1.07,2.18.47,3.11,3,1.74,4.76Z"/>
  </g>
</svg>