<?xml version="1.0" encoding="UTF-8"?>
<svg id="Layer_2" data-name="Layer 2" xmlns="http://www.w3.org/2000/svg" viewBox="0 0 33.57 34.85">
  <defs>
    <style>
      .cls-1 {
        fill: #d94766;
        stroke-width: 0px;
      }
    </style>
  </defs>
  <g id="Layer_1-2" data-name="Layer 1">
    <path class="cls-1" d="M23.56,22.92c-.52.53-1.03,1.06-1.56,1.61-.42-.38-.91-.8-1.38-1.26-.19-.18-.32-.17-.55-.06-.57.27-1.15.5-1.73.73-.17.07-.24.14-.25.33-.05.68-.12,1.36-.18,2.06h-2.18c-.05-.72-.08-1.44-.14-2.15,0-.1-.08-.24-.16-.28-.7-.29-1.41-.57-2.16-.86-.51.46-1.06.96-1.6,1.45-.52-.54-1.02-1.07-1.55-1.62.46-.59.94-1.22,1.44-1.87-.48-.64-.75-1.37-.95-2.14-.02-.09-.17-.19-.28-.2-.66-.09-1.33-.15-2.01-.22v-2.26c.67-.07,1.32-.13,1.98-.21.11-.01.26-.09.3-.18.29-.73.55-1.46.83-2.24-.44-.53-.93-1.1-1.39-1.65.49-.52.98-1.02,1.48-1.54.45.39.96.8,1.42,1.25.25.24.46.22.74.1.52-.23,1.05-.45,1.59-.65.17-.06.24-.13.26-.33.05-.68.12-1.36.19-2.07h2.18c.07.67.14,1.34.18,2.02.02.24.11.31.32.39.56.21,1.13.46,1.67.72.22.1.35.12.54-.06.47-.45.96-.88,1.46-1.32.51.51,1.01,1.01,1.55,1.54-.35.44-.7.88-1.06,1.31-.38.47-.35.45-.1.99.23.5.4,1.03.59,1.56.06.17.11.25.31.27.66.07,1.33.17,2,.26v2.26c-.7.09-1.38.17-2.06.28-.11.01-.26.13-.3.23-.29.71-.55,1.43-.85,2.22.43.48.93,1.06,1.4,1.59M24.39,20.16c.75-.06,1.49-.16,2.24-.25v-4.9c-.75-.07-1.48-.15-2.22-.19-.26-.01-.38-.13-.45-.36-.07-.24-.27-.45,0-.73.52-.57.99-1.19,1.37-1.65-1.1-1.22-2.17-2.41-3.25-3.6-.53.45-1.04.85-1.49,1.29-.32.31-.58.43-.99.16-.2-.13-.3-.23-.32-.48-.04-.75-.12-1.5-.18-2.25h-4.73c-.06.78-.13,1.55-.18,2.33-.01.25-.12.37-.32.44-.24.07-.43.29-.71.03-.58-.54-1.2-1.04-1.77-1.53-1.12,1.15-2.21,2.29-3.32,3.45.41.49.82,1.03,1.27,1.53.27.31.4.55.16.96-.13.23-.24.35-.51.36-.71.04-1.42.12-2.14.18v4.9c.73.06,1.45.13,2.17.19.19.01.39,0,.44.25.06.3.38.56.07.93-.5.59-.95,1.22-1.38,1.79,1.15,1.19,2.26,2.36,3.38,3.53.63-.56,1.28-1.13,1.92-1.7.21.1.37.21.54.26.21.06.27.18.28.39,0,.35.04.71.08,1.06.03.42.07.83.11,1.25h4.72c.04-.76.09-1.5.11-2.24,0-.25.04-.44.31-.52.26-.08.47-.28.76,0,.53.53,1.11,1.01,1.66,1.49,1.14-1.18,2.26-2.34,3.39-3.52-.41-.48-.83-1.01-1.3-1.5-.3-.32-.45-.58-.18-1.01.13-.21.22-.32.46-.34"/>
    <path class="cls-1" d="M17.77,32.22c-1.2.88-2.39,1.75-3.59,2.64-.28-.39-.55-.76-.84-1.16.57-.42,1.14-.82,1.77-1.27-1.96-.26-3.74-.84-5.4-1.79-1.66-.95-3.08-2.19-4.27-3.75.39-.32.74-.63,1.13-.95,1.07,1.36,2.32,2.48,3.79,3.33,1.46.84,3.01,1.37,4.75,1.6-.35-.54-.66-1-.99-1.5.38-.29.74-.58,1.13-.88.85,1.25,1.69,2.48,2.54,3.73"/>
    <path class="cls-1" d="M33.57,20.13c-.38.29-.74.58-1.13.88-.4-.61-.81-1.21-1.26-1.89-.23,2.05-.76,3.9-1.68,5.63-.91,1.73-2.1,3.21-3.62,4.46-.31-.39-.6-.76-.91-1.16,2.68-2.3,4.25-5.22,4.76-8.87-.52.37-.97.68-1.45,1.03-.28-.4-.56-.77-.84-1.17,1.21-.89,2.39-1.76,3.6-2.64.85,1.25,1.69,2.48,2.54,3.73"/>
    <path class="cls-1" d="M3.67,15.86c.32-.22.57-.4.82-.58.26-.18.51-.36.79-.56.28.4.56.77.84,1.17-1.2.88-2.39,1.75-3.59,2.64-.85-1.25-1.69-2.48-2.54-3.74.38-.29.73-.57,1.12-.88.37.56.74,1.11,1.15,1.73.55-4.07,2.32-7.37,5.34-10.01.32.39.61.73.91,1.1-2.72,2.39-4.36,5.37-4.85,9.13"/>
    <path class="cls-1" d="M28.14,7.9c-.2.16-.38.31-.56.45-.18.14-.37.28-.57.43-1.44-1.79-3.18-3.15-5.24-4.03-1.07-.46-2.18-.76-3.39-.91.37.57.72,1.1,1.08,1.66-.39.3-.75.58-1.13.87-.85-1.25-1.69-2.48-2.54-3.73,1.21-.89,2.39-1.75,3.6-2.64.28.39.55.77.84,1.17-.55.4-1.09.78-1.67,1.2,3.9.58,7.05,2.42,9.57,5.52"/>
    <path class="cls-1" d="M16.8,19.76c-1.21,0-2.26-1.08-2.26-2.33s1.05-2.34,2.26-2.33c1.21,0,2.25,1.09,2.24,2.35,0,1.24-1.05,2.32-2.24,2.32M16.79,13.6c-2.03,0-3.71,1.74-3.69,3.84,0,2.11,1.65,3.81,3.68,3.82,2.03,0,3.71-1.74,3.69-3.84-.01-2.11-1.65-3.81-3.68-3.82"/>
  </g>
</svg>