<?xml version="1.0" encoding="UTF-8"?>
<svg id="Layer_2" data-name="Layer 2" xmlns="http://www.w3.org/2000/svg" viewBox="0 0 33.57 37.98">
  <defs>
    <style>
      .cls-1 {
        fill: #d94766;
        stroke-width: 0px;
      }
    </style>
  </defs>
  <g id="Layer_1-2" data-name="Layer 1">
    <path class="cls-1" d="M12.29,30.82c.01-.45.25-.69.71-.71.2,0,.41.01.61,0,.36-.02.59-.29.6-.64,0-.36-.23-.62-.59-.65-.22-.02-.43,0-.65-.01-.43-.02-.67-.26-.68-.69-.01-.38,0-.76,0-1.14,0-.54.24-.78.76-.78,1.25,0,2.5,0,3.75,0s2.47,0,3.71,0c.58,0,.81.23.81.8,0,.33,0,.66,0,.98,0,.6-.22.82-.83.83-1.4,0-2.79,0-4.2,0-.32,0-.58.08-.71.41-.17.48.12.89.65.9,1.38,0,2.74,0,4.12,0,.79,0,.97.18.97.98,0,.32,0,.63,0,.94-.02.44-.25.7-.68.7-2.55,0-5.11,0-7.66,0-.45,0-.68-.26-.7-.72-.01-.4-.01-.79,0-1.18M14.92,16.82c-1.18-1.2-2.4-2.38-3.58-3.6-1.04-1.07-1.28-2.63-.67-3.98.6-1.32,1.91-2.12,3.35-2.05.82.04,1.54.36,2.15.92.51.46.78.46,1.29,0,1.4-1.26,3.43-1.23,4.75.08,1.33,1.32,1.48,3.52.2,4.88-1.79,1.9-3.68,3.71-5.52,5.56-.02.02-.05.02-.07.03-.03.02-.05.05-.08.08-.6-.63-1.19-1.28-1.81-1.91M28.14,9.19C26.49,2.03,19.18-1.84,12.41.87,6.05,3.41,3.27,11.31,6.59,17.38c.91,1.66,2.13,3.03,3.67,4.12,1.08.77,1.71,1.82,1.95,3.14.05.24,0,.39-.24.51-.44.23-.8.62-.88,1.12-.14,1.09-.33,2.2.39,3.2-.41.48-.52,1.06-.49,1.68.02.27,0,.54,0,.82-.01.85.37,1.45,1.09,1.87.13.08.25.24.28.38.41,1.76,1.45,2.96,3.13,3.53,1.05.36,2.09.28,3.11-.18.44-.2.59-.52.43-.9-.15-.37-.48-.48-.91-.31-.07.03-.15.06-.22.09-1.81.68-3.92-.51-4.22-2.4h6.29c-.09.26-.17.51-.26.75-.13.37.01.69.35.84.35.15.68.04.83-.34.14-.32.26-.66.33-1,.05-.25.13-.4.37-.52.59-.31.98-.82.99-1.49.03-.97.26-2.01-.4-2.77.16-.45.36-.8.4-1.18.06-.57.05-1.15,0-1.71-.07-.97-.9-1.73-1.87-1.76-.5-.01-1,0-1.5,0h-1.78c0-1.55,0-3.05,0-4.55,0-.3.08-.5.29-.71,1.81-1.8,3.62-3.59,5.4-5.41,1.43-1.45,1.81-3.61,1.01-5.44-.82-1.85-2.61-2.97-4.62-2.88-1.01.05-1.91.41-2.71,1.04-.11-.08-.2-.13-.28-.2-2.06-1.43-4.85-1.02-6.42.96-1.55,1.96-1.38,4.76.42,6.58,1.78,1.8,3.58,3.58,5.36,5.38.14.15.25.39.25.6.02,1.42.01,2.83.01,4.25,0,.12-.02.24-.02.35h-2.58c-.02-.09-.04-.17-.05-.24-.02-.09-.02-.19-.04-.29-.34-1.8-1.39-3.07-2.81-4.17-3.2-2.47-4.61-5.82-4.06-9.86C7.35,4.66,12.36.78,17.9,1.36c6.17.64,10.41,6.72,8.95,12.83-.61,2.55-1.99,4.6-4.1,6.12-.83.61-1.54,1.32-2.01,2.25-.18.36-.08.69.25.88.33.19.67.12.86-.24.44-.85,1.12-1.44,1.87-1.99,3.68-2.73,5.45-7.57,4.42-12.02"/>
    <path class="cls-1" d="M33.57,11.78c0,.39-.26.65-.67.65-.83.01-1.66.01-2.49,0-.42,0-.67-.26-.67-.65,0-.39.26-.64.67-.65.43-.01.86,0,1.29,0,.4,0,.8,0,1.2,0,.42.01.67.27.67.65"/>
    <path class="cls-1" d="M4.38,7.82c0,.47-.36.77-.81.65-.82-.23-1.65-.48-2.46-.75-.37-.12-.53-.44-.42-.8.11-.36.41-.55.78-.44.83.23,1.64.48,2.47.74.28.09.45.29.44.61"/>
    <path class="cls-1" d="M5.92,4.57c-.22.36-.56.42-.97.15-.68-.44-1.35-.89-2.02-1.34-.26-.17-.4-.41-.29-.73.1-.3.3-.47.68-.49.09.03.23.08.35.16.67.44,1.33.88,1.99,1.32.38.26.47.58.25.93"/>
    <path class="cls-1" d="M32.61,7.64c-.92.33-1.86.6-2.7.86-.42-.02-.62-.2-.7-.51-.08-.32,0-.61.3-.72.9-.3,1.81-.58,2.73-.82.32-.08.54.14.63.44.09.3.06.63-.25.74"/>
    <path class="cls-1" d="M3.81,11.77c0,.39-.23.64-.62.65-.43.01-.86,0-1.29,0s-.83,0-1.25,0c-.41,0-.64-.24-.64-.62-.01-.41.22-.67.64-.68.85-.01,1.7-.01,2.54,0,.4,0,.63.27.63.65"/>
    <path class="cls-1" d="M31.02,2.87c-.16.2-.24.4-.4.5-.68.48-1.39.94-2.09,1.39-.36.23-.7.15-.9-.19-.2-.33-.13-.67.2-.89.69-.47,1.38-.95,2.1-1.38.17-.11.48-.12.66-.02.18.09.28.36.43.59"/>
    <path class="cls-1" d="M22.05,10.9c-.2.43-.35.87-.59,1.27-.2.33-.55.33-.85.12-.29-.22-.36-.54-.18-.87.4-.74.21-1.28-.57-1.61-.39-.16-.54-.46-.4-.84.13-.37.43-.51.84-.39.95.27,1.66,1.26,1.65,2.27.04.02.07.03.1.05"/>
  </g>
</svg>