<?xml version="1.0" encoding="UTF-8"?>
<svg id="Layer_2" data-name="Layer 2" xmlns="http://www.w3.org/2000/svg" viewBox="0 0 39.25 32.44">
  <defs>
    <style>
      .cls-1 {
        fill: #d94766;
        strokeWidth: 0px;
      }
    </style>
  </defs>
  <g id="Layer_1-2" data-name="Layer 1">
    <path class="cls-1" d="M33.11,21.9c-1.49-.05-2.7-1.13-2.99-2.64-.06-.29-.15-.59-.28-.85-.97-2.09-.2-4.49,1.78-5.52,1.81-.94,4.11.01,4.94,2.07.36.9.43,1.83.12,2.8-.37-.3-.72-.6-1.08-.87-1.04-.76-2.21-1.21-3.4-1.57-.49-.14-.7.04-.87.59-.09.29-.25.57-.42.83-.24.38-.24.72.03.95.27.23.6.17.87-.18.19-.25.36-.54.56-.84,1.34.5,2.68,1.01,3.65,2.24.09.12.14.35.1.5-.33,1.47-1.64,2.55-3.02,2.49M33.87,24.9c-.46.26-.91.34-1.34.03-.29-.2-.63-.47-.72-.79-.1-.33.08-.75.13-1.08h2.47c.06.64.27,1.38-.53,1.84M30.13,23.99c-.85.58-1.61.61-2.46.04-.41-.28-.9-.44-1.38-.68.75-.4,1.45-.78,2.16-1.15.55-.29.93-.71.92-1.35.4.45.84.9,1.24,1.39.11.14.09.4.13.61.11.58-.16.82-.61,1.12M24.79,22.49c-.58.23-1.5-.58-1.5-1.23,0-.25,0-.5,0-.75-.18-.81.16-1.31.74-1.83,1.8-1.62,2.41-3.81,2.35-6.29-.03-1.06-.33-1.94-1.15-2.56-.29-.23-.57-.47-.88-.68-1.89-1.31-3.98-2.03-6.19-2.38-.27-.04-.53-.08-.8-.12-.4-.05-.67.12-.73.47-.07.39.13.65.54.75,1.25.29,2.53.52,3.76.9,1.37.42,2.63,1.15,3.71,2.17.25.23.49.62.52.96.15,1.6-.01,3.16-.84,4.57-1.24,2.11-3.71,3.21-5.96,2.61-2.37-.62-4.09-2.77-4.27-5.32,0-.15,0-.3-.03-.45-.09-.65.12-1.08.66-1.44.8-.52,1.38-1.29,1.71-2.26.15-.45.06-.77-.25-.92-.33-.15-.64,0-.81.45-.28.77-.76,1.38-1.41,1.8-.8.52-1.09,1.28-1.06,2.26.08,2.47.99,4.46,2.85,5.95.12.09.21.3.21.47.03.56,0,1.13.02,1.7,0,.43-.18.66-.52.86-.54.32-1.06.4-1.63.11-.84-.43-1.7-.81-2.55-1.22-.19-.09-.22-.22-.2-.45.33-3.08.64-6.17.97-9.25.16-1.46.2-2.97.57-4.37C14.36.18,21.59.02,24.64,3.27c1.26,1.36,2.01,2.99,2.25,4.87.22,1.7.3,3.43.47,5.15.25,2.44.53,4.87.81,7.31.03.25-.01.39-.22.49-1.06.48-2.1.98-3.17,1.41M19.67,26.55c-1.8.08-3.72-1.21-4.41-2.92.63-.33,1.43-.51,1.65-1.32.2-.73.21-1.5.31-2.3,1.59.63,3.22.63,4.91-.04,0,.43.01.8,0,1.17-.05,1.1.4,1.84,1.35,2.24.16.07.31.14.46.22.02.01.04.04.08.09-.95,1.83-2.41,2.78-4.34,2.86M11.45,24.06c-.1.04-.24-.04-.37-.08-.52-.17-1.05-.32-1.57-.5-.42-.15-.55-.95-.21-1.28.24-.23.48-.45.71-.67.83.88,1.91,1.28,3.03,1.8-.56.27-1.07.52-1.58.73M5.59,21.63c-1.31-.59-1.94-1.77-1.97-3.27-.01-.81-.13-1.55-.44-2.31-.62-1.49.45-3.36,1.97-3.48,1.11-.08,2.22-.05,3.33-.06.64-.01,1.28,0,2.03,0-.07,1.18.04,2.34-.24,3.39-.24.93-.43,1.83-.47,2.8-.08,2.31-2.24,3.82-4.21,2.93M7.72,23.9c-.34.32-.64.7-.99,1.1-.43-.48-.84-.88-1.19-1.35-.12-.15-.08-.45-.1-.6h2.54c.1.28.05.57-.25.85M33.18,9.87c1.08.03,1.9.84,1.81,1.8-1.22-.5-2.44-.51-3.69.01-.04-1.04.82-1.84,1.88-1.81M37.41,24.62c-.41-.19-.78-.48-1.2-.63-.54-.2-.71-.55-.65-1.14.03-.33.07-.57.33-.8.76-.65,1.2-1.52,1.42-2.53.05-.23.11-.45.21-.66.97-2.16.5-4.7-1.2-6.28-.18-.16-.23-.32-.18-.56.12-.62,0-1.21-.29-1.75-.64-1.19-1.85-1.79-3.25-1.56-1.61.27-2.74,1.8-2.42,3.45.02.11-.07.27-.14.38-.41.59-.84,1.17-1.26,1.75-.04.06-.08.11-.15.19-.16-1.96-.31-3.87-.49-5.78-.2-2.12-.86-4.05-2.17-5.68-1.64-2.05-3.77-2.99-6.24-2.99-3.5,0-6.12,1.65-7.69,5.1-.64,1.4-.89,2.9-.99,4.44-.04.57-.09,1.14-.13,1.74-.22,0-.38,0-.55,0-1.76.02-3.53-.03-5.29.07-2.3.12-3.89,3.01-2.93,5.27.24.56.33,1.11.33,1.7,0,1.41.46,2.63,1.42,3.58.32.32.45.61.42,1.06-.01.34-.13.49-.42.56-.67.19-1.33.4-1.99.61-1.25.4-1.89,1.33-1.9,2.74,0,1.56,0,3.12,0,4.68,0,.14,0,.28.02.41.07.31.29.51.56.45.2-.05.38-.27.52-.45.07-.09.04-.29.04-.44,0-1.56,0-3.12,0-4.68,0-.81.34-1.28,1.06-1.52.76-.24,1.52-.49,2.28-.7.11-.03.29.03.38.13.36.35.71.71,1.03,1.11.13.15.23.4.23.6.02,1.68.01,3.37.02,5.05,0,.17-.03.38.06.48.14.18.34.38.54.42.27.05.48-.17.53-.48.02-.13.01-.28.01-.42,0-1.69,0-3.39,0-5.09,0-.16.06-.36.15-.48.37-.44.77-.85,1.16-1.26.07-.07.21-.13.29-.11.31.08.6.21.91.32-.04.06-.05.1-.07.12-.83.74-1.16,1.72-1.14,2.85.01,1.22,0,2.43,0,3.65,0,.16-.03.38.06.48.14.18.35.38.55.41.27.04.47-.18.52-.49.02-.13.01-.28.01-.41,0-1.27,0-2.54,0-3.81,0-.8.27-1.5.94-1.86,1.13-.6,2.29-1.13,3.46-1.7,1.21,2.34,3.03,3.64,5.47,3.64s4.27-1.29,5.47-3.62c.98.46,1.92.95,2.89,1.36,1.09.46,1.57,1.27,1.53,2.52-.04,1.22,0,2.46,0,3.68,0,.3.08.58.36.65.17.04.43.02.56-.1.13-.14.21-.41.22-.62.01-1.32.01-2.65,0-3.97-.01-.73-.18-1.42-.59-2.02-.04-.06-.09-.18-.09-.19.78-.53.79-.53,1.43.12.73.73,1.58,1.02,2.5.63.49-.2.91-.64,1.34-1.01.18-.15.3-.22.52-.09.47.28.95.54,1.44.78.62.32.92.82.91,1.57-.02,1.37,0,2.73,0,4.1,0,.35.02.67.38.83.36.15.57-.09.77-.35v-5.22c-.24-1.1-.9-1.78-1.84-2.2"/>
    <path class="cls-1" d="M3.61,31.72c0,.44-.24.73-.58.72-.33-.01-.56-.28-.56-.7,0-1.27,0-2.53,0-3.8,0-.45.24-.72.58-.71.34,0,.55.28.56.74,0,.63,0,1.27,0,1.9s0,1.24,0,1.86"/>
    <path class="cls-1" d="M36.8,28.82c0,.47,0,.94,0,1.41,0,.5,0,1,0,1.49,0,.45-.25.73-.58.72-.34-.01-.56-.29-.56-.74,0-.97,0-1.93,0-2.89,0-.49.21-.76.58-.75.35,0,.56.28.57.77"/>
    <path class="cls-1" d="M14.05,30.49c0,.27,0,.55,0,.81,0,.15,0,.32,0,.47-.02.4-.25.67-.56.66-.34-.02-.56-.24-.57-.6-.02-.9-.02-1.79,0-2.69.01-.36.22-.59.57-.59.32,0,.54.25.55.65,0,.19,0,.37,0,.55,0,.24,0,.49,0,.73"/>
    <path class="cls-1" d="M26.34,31.79c0,.39-.27.65-.57.65-.32,0-.55-.27-.56-.69-.01-.42,0-.83,0-1.24s-.01-.85,0-1.28c.01-.4.23-.65.55-.66.32-.01.57.22.58.62.02.87.02,1.74,0,2.61"/>
    <path class="cls-1" d="M9.09,16.11c-.12.33-.38.48-.68.35-1.13-.47-2.3-.55-3.49-.62-.39-.03-.63-.3-.61-.64.02-.35.27-.58.67-.59h.57c1.03.1,2.06.2,3.03.62.08.03.17.06.25.11.27.18.39.44.27.77"/>
  </g>
</svg>