<?xml version="1.0" encoding="UTF-8"?>
<svg id="Layer_2" data-name="Layer 2" xmlns="http://www.w3.org/2000/svg" viewBox="0 0 32.26 36.04">
  <defs>
    <style>
      .cls-1 {
        fill: #d94766;
        stroke-width: 0px;
      }
    </style>
  </defs>
  <g id="Layer_1-2" data-name="Layer 1">
    <path class="cls-1" d="M29.65,16.7c-.29,6.75-3.28,11.94-9.3,15.24-.99.55-2.09.92-3.15,1.33-.74.29-1.52.26-2.26-.05-6.94-2.91-11-8.07-12.16-15.46-.15-.99-.15-2-.17-3-.02-2.03,0-4.07,0-6.11v-.46c.73-.12,1.45-.21,2.17-.34,4.03-.76,7.64-2.47,11.01-4.74.28-.19.46-.18.73,0,2.68,1.82,5.53,3.3,8.66,4.16,1.45.4,2.93.66,4.49,1,0,.04.01.15.01.28,0,2.72.1,5.44-.02,8.15M32.26,7.24c0-1.08-.43-1.54-1.53-1.59-2.42-.12-4.74-.68-6.99-1.57-2.38-.94-4.58-2.21-6.66-3.69-.72-.51-1.16-.51-1.88-.02-.46.32-.93.65-1.4.95C10.01,3.77,5.95,5.44,1.36,5.66.45,5.7.01,6.22.01,7.13.01,9.87-.02,12.6.03,15.33c.02,1.23.09,2.47.32,3.67,1.48,7.63,5.81,13.07,12.92,16.32,1.21.55,2.47.9,3.81.61.82-.18,1.64-.46,2.42-.79,7.69-3.2,11.83-9.03,12.66-17.19.2-1.89.03-3.83.03-5.74h.08v-4.98Z"/>
    <path class="cls-1" d="M23.48,15.22c-.09.11-.2.22-.31.32-2.55,2.53-5.1,5.06-7.65,7.58-.8.79-1.45.79-2.25,0-1.44-1.43-2.88-2.86-4.32-4.29-.39-.39-.54-.83-.37-1.36.16-.5.53-.8,1.05-.88.48-.07.86.12,1.19.46,1.08,1.08,2.15,2.14,3.23,3.22.11.1.19.23.35.44.15-.2.22-.35.34-.46,2.22-2.21,4.44-4.41,6.66-6.62.36-.36.78-.57,1.3-.46.95.2,1.35,1.29.75,2.05"/>
  </g>
</svg>