<?xml version="1.0" encoding="UTF-8"?>
<svg id="Layer_2" data-name="Layer 2" xmlns="http://www.w3.org/2000/svg" viewBox="0 0 38.8 37.71">
  <defs>
    <style>
      .cls-1 {
        fill: #d94766;
        stroke-width: 0px;
      }
    </style>
  </defs>
  <g id="Layer_1-2" data-name="Layer 1">
    <path class="cls-1" d="M30.88,35.95v.51h-1.91v-8.76h-1.27v8.74h-1.92v-16.14c-.19.21-.29.32-.39.44-1.2,1.38-2.4,2.76-3.6,4.14-.09.1-.18.2-.27.3-.22.24-.48.3-.75.1-.25-.18-.26-.49-.03-.78.54-.66,1.09-1.32,1.64-1.98.95-1.14,1.9-2.28,2.83-3.43.16-.2.33-.26.58-.26,1.87,0,3.74,0,5.61,0,.21,0,.45-.09.6-.23,1.51-1.3,3.01-2.62,4.51-3.94.11-.1.24-.24.36-.23.19,0,.43.07.55.2.2.22.11.48-.11.67-.69.62-1.37,1.24-2.06,1.85-1.37,1.22-2.73,2.46-4.1,3.67-.21.18-.29.37-.29.65.01,4.82,0,9.65,0,14.47M24.47,36.43h-10.15v-12.6s.08-.07.11-.1c.05.1.09.21.17.3.48.56.96,1.11,1.44,1.67.89,1.03,1.43,1.17,2.72.67v5.04h1.26v-5.04c.13.05.22.08.3.11.79.35,1.58.18,2.16-.46.65-.74,1.3-1.49,1.99-2.29v12.71ZM13.02,20.32v16.12h-1.9v-8.74h-1.27v8.75h-1.92v-.48c0-4.75,0-9.49.01-14.24,0-.47-.15-.77-.5-1.08-1.94-1.71-3.86-3.44-5.78-5.17-.09-.08-.18-.15-.26-.25-.18-.22-.19-.45,0-.65.18-.21.42-.24.66-.08.13.09.25.2.37.31,1.47,1.29,2.94,2.58,4.42,3.86.13.12.35.18.54.18,1.86.01,3.72.01,5.58,0,.28,0,.47.07.65.29,1.44,1.75,2.9,3.5,4.34,5.25.08.09.21.2.21.29,0,.21,0,.49-.14.59-.13.1-.41.06-.62.03-.1-.02-.17-.16-.25-.25-1.27-1.46-2.54-2.92-3.82-4.39-.07-.09-.16-.17-.31-.33M8.57,14.43c0-1.03.85-1.87,1.9-1.88,1.05,0,1.92.86,1.92,1.91,0,1.03-.86,1.87-1.9,1.88-1.06,0-1.92-.85-1.91-1.9M26.42,14.44c0-1.04.84-1.88,1.89-1.88,1.05,0,1.93.86,1.93,1.9,0,1.03-.86,1.87-1.9,1.88-1.06,0-1.92-.85-1.91-1.9M20.07,1.25h8.22v4.98h-8.22V1.25ZM29.58,7.54v-3.75h5.43c-.29.71-.56,1.41-.86,2.1-.11.27-.12.49,0,.76.3.69.57,1.4.87,2.13h-7.32v-1.23h1.88ZM32.15,36.04c0-4.68,0-9.36,0-14.04,0-.26.09-.44.28-.61,1.89-1.68,3.77-3.38,5.66-5.06.5-.45.79-.98.69-1.66-.11-.69-.49-1.18-1.16-1.41-.66-.23-1.27-.1-1.81.36-1.42,1.24-2.84,2.49-4.26,3.73-.1.08-.21.22-.32.22-.72.02-1.43,0-2.15,0,1.84-.77,2.68-2.08,2.37-3.74-.26-1.41-1.53-2.47-3.03-2.53-1.48-.06-2.84.95-3.19,2.37-.41,1.66.35,2.93,2.41,3.91-.89,0-1.7-.01-2.5.01-.17,0-.39.11-.5.24-.86,1.01-1.71,2.05-2.57,3.08-.65.79-1.31,1.57-2.02,2.43V7.54h6.36v2.48h10.49c-.47-1.15-.91-2.26-1.37-3.37-.11-.26-.13-.49,0-.76.27-.62.52-1.25.77-1.88.2-.49.39-.98.62-1.54h-7.34V0h-10.83v23.34c-.14-.15-.21-.23-.28-.31-1.24-1.49-2.52-2.95-3.69-4.49-.56-.73-1.14-1.11-2.08-.97-.47.07-.96.01-1.45.01,1.84-.82,2.66-2.12,2.33-3.79-.28-1.41-1.55-2.45-3.05-2.5-1.48-.04-2.84.99-3.17,2.4-.39,1.66.39,2.93,2.43,3.88-.7,0-1.3.02-1.9-.01-.22-.01-.48-.1-.64-.24-1.41-1.21-2.81-2.44-4.21-3.68-.53-.46-1.12-.63-1.79-.44-1.36.4-1.7,2.05-.62,3.03,1.9,1.71,3.8,3.42,5.71,5.12.21.18.29.37.29.65-.01,4.66,0,9.33,0,14v.45H.28v1.23h38.21v-1.24h-6.32c-.01-.17-.02-.3-.02-.43"/>
  </g>
</svg>