<?xml version="1.0" encoding="UTF-8"?>
<svg id="Layer_2" data-name="Layer 2" xmlns="http://www.w3.org/2000/svg" viewBox="0 0 38.8 34.48">
  <defs>
    <style>
      .cls-1 {
        fill: #d94766;
        strokeWidth: 0px;
      }
    </style>
  </defs>
  <g id="Layer_1-2" data-name="Layer 1">
    <path class="cls-1" d="M14.09,30.22c-.02.38-.35.66-.77.66-.42,0-.74-.3-.74-.68,0-.37.33-.68.74-.68.43,0,.78.31.77.7"/>
    <path class="cls-1" d="M25.16,20c-.01-.38.33-.7.75-.7s.77.3.76.69c-.01.37-.35.67-.75.67s-.74-.3-.76-.67"/>
    <path class="cls-1" d="M20.72,12.57c-.98,0-1.78-.71-1.78-1.61s.78-1.59,1.75-1.61c.97-.01,1.79.73,1.78,1.61,0,.88-.78,1.6-1.75,1.61M20.69,7.98c-1.8,0-3.26,1.34-3.27,2.98,0,1.64,1.45,2.97,3.26,2.99,1.82,0,3.3-1.32,3.31-2.97,0-1.64-1.49-3-3.3-2.99M20.72,12.57c-.98,0-1.78-.71-1.78-1.61s.78-1.59,1.75-1.61c.97-.01,1.79.73,1.78,1.61,0,.88-.78,1.6-1.75,1.61M20.69,7.98c-1.8,0-3.26,1.34-3.27,2.98,0,1.64,1.45,2.97,3.26,2.99,1.82,0,3.3-1.32,3.31-2.97,0-1.64-1.49-3-3.3-2.99M20.72,12.57c-.98,0-1.78-.71-1.78-1.61s.78-1.59,1.75-1.61c.97-.01,1.79.73,1.78,1.61,0,.88-.78,1.6-1.75,1.61M20.69,7.98c-1.8,0-3.26,1.34-3.27,2.98,0,1.64,1.45,2.97,3.26,2.99,1.82,0,3.3-1.32,3.31-2.97,0-1.64-1.49-3-3.3-2.99M20.72,12.57c-.98,0-1.78-.71-1.78-1.61s.78-1.59,1.75-1.61c.97-.01,1.79.73,1.78,1.61,0,.88-.78,1.6-1.75,1.61M20.69,7.98c-1.8,0-3.26,1.34-3.27,2.98,0,1.64,1.45,2.97,3.26,2.99,1.82,0,3.3-1.32,3.31-2.97,0-1.64-1.49-3-3.3-2.99M20.72,12.57c-.98,0-1.78-.71-1.78-1.61s.78-1.59,1.75-1.61c.97-.01,1.79.73,1.78,1.61,0,.88-.78,1.6-1.75,1.61M20.69,7.98c-1.8,0-3.26,1.34-3.27,2.98,0,1.64,1.45,2.97,3.26,2.99,1.82,0,3.3-1.32,3.31-2.97,0-1.64-1.49-3-3.3-2.99M20.72,12.57c-.98,0-1.78-.71-1.78-1.61s.78-1.59,1.75-1.61c.97-.01,1.79.73,1.78,1.61,0,.88-.78,1.6-1.75,1.61M20.69,7.98c-1.8,0-3.26,1.34-3.27,2.98,0,1.64,1.45,2.97,3.26,2.99,1.82,0,3.3-1.32,3.31-2.97,0-1.64-1.49-3-3.3-2.99M20.72,12.57c-.98,0-1.78-.71-1.78-1.61s.78-1.59,1.75-1.61c.97-.01,1.79.73,1.78,1.61,0,.88-.78,1.6-1.75,1.61M20.69,7.98c-1.8,0-3.26,1.34-3.27,2.98,0,1.64,1.45,2.97,3.26,2.99,1.82,0,3.3-1.32,3.31-2.97,0-1.64-1.49-3-3.3-2.99M20.72,12.57c-.98,0-1.78-.71-1.78-1.61s.78-1.59,1.75-1.61c.97-.01,1.79.73,1.78,1.61,0,.88-.78,1.6-1.75,1.61M20.69,7.98c-1.8,0-3.26,1.34-3.27,2.98,0,1.64,1.45,2.97,3.26,2.99,1.82,0,3.3-1.32,3.31-2.97,0-1.64-1.49-3-3.3-2.99M20.72,12.57c-.98,0-1.78-.71-1.78-1.61s.78-1.59,1.75-1.61c.97-.01,1.79.73,1.78,1.61,0,.88-.78,1.6-1.75,1.61M20.69,7.98c-1.8,0-3.26,1.34-3.27,2.98,0,1.64,1.45,2.97,3.26,2.99,1.82,0,3.3-1.32,3.31-2.97,0-1.64-1.49-3-3.3-2.99M20.72,12.57c-.98,0-1.78-.71-1.78-1.61s.78-1.59,1.75-1.61c.97-.01,1.79.73,1.78,1.61,0,.88-.78,1.6-1.75,1.61M20.69,7.98c-1.8,0-3.26,1.34-3.27,2.98,0,1.64,1.45,2.97,3.26,2.99,1.82,0,3.3-1.32,3.31-2.97,0-1.64-1.49-3-3.3-2.99M20.72,12.57c-.98,0-1.78-.71-1.78-1.61s.78-1.59,1.75-1.61c.97-.01,1.79.73,1.78,1.61,0,.88-.78,1.6-1.75,1.61M20.69,7.98c-1.8,0-3.26,1.34-3.27,2.98,0,1.64,1.45,2.97,3.26,2.99,1.82,0,3.3-1.32,3.31-2.97,0-1.64-1.49-3-3.3-2.99M20.72,12.57c-.98,0-1.78-.71-1.78-1.61s.78-1.59,1.75-1.61c.97-.01,1.79.73,1.78,1.61,0,.88-.78,1.6-1.75,1.61M20.69,7.98c-1.8,0-3.26,1.34-3.27,2.98,0,1.64,1.45,2.97,3.26,2.99,1.82,0,3.3-1.32,3.31-2.97,0-1.64-1.49-3-3.3-2.99M20.72,12.57c-.98,0-1.78-.71-1.78-1.61s.78-1.59,1.75-1.61c.97-.01,1.79.73,1.78,1.61,0,.88-.78,1.6-1.75,1.61M20.69,7.98c-1.8,0-3.26,1.34-3.27,2.98,0,1.64,1.45,2.97,3.26,2.99,1.82,0,3.3-1.32,3.31-2.97,0-1.64-1.49-3-3.3-2.99M20.72,12.57c-.98,0-1.78-.71-1.78-1.61s.78-1.59,1.75-1.61c.97-.01,1.79.73,1.78,1.61,0,.88-.78,1.6-1.75,1.61M20.69,7.98c-1.8,0-3.26,1.34-3.27,2.98,0,1.64,1.45,2.97,3.26,2.99,1.82,0,3.3-1.32,3.31-2.97,0-1.64-1.49-3-3.3-2.99M20.72,12.57c-.98,0-1.78-.71-1.78-1.61s.78-1.59,1.75-1.61c.97-.01,1.79.73,1.78,1.61,0,.88-.78,1.6-1.75,1.61M20.69,7.98c-1.8,0-3.26,1.34-3.27,2.98,0,1.64,1.45,2.97,3.26,2.99,1.82,0,3.3-1.32,3.31-2.97,0-1.64-1.49-3-3.3-2.99M20.72,12.57c-.98,0-1.78-.71-1.78-1.61s.78-1.59,1.75-1.61c.97-.01,1.79.73,1.78,1.61,0,.88-.78,1.6-1.75,1.61M20.69,7.98c-1.8,0-3.26,1.34-3.27,2.98,0,1.64,1.45,2.97,3.26,2.99,1.82,0,3.3-1.32,3.31-2.97,0-1.64-1.49-3-3.3-2.99M20.72,12.57c-.98,0-1.78-.71-1.78-1.61s.78-1.59,1.75-1.61c.97-.01,1.79.73,1.78,1.61,0,.88-.78,1.6-1.75,1.61M20.69,7.98c-1.8,0-3.26,1.34-3.27,2.98,0,1.64,1.45,2.97,3.26,2.99,1.82,0,3.3-1.32,3.31-2.97,0-1.64-1.49-3-3.3-2.99M20.72,12.57c-.98,0-1.78-.71-1.78-1.61s.78-1.59,1.75-1.61c.97-.01,1.79.73,1.78,1.61,0,.88-.78,1.6-1.75,1.61M20.69,7.98c-1.8,0-3.26,1.34-3.27,2.98,0,1.64,1.45,2.97,3.26,2.99,1.82,0,3.3-1.32,3.31-2.97,0-1.64-1.49-3-3.3-2.99M20.72,12.57c-.98,0-1.78-.71-1.78-1.61s.78-1.59,1.75-1.61c.97-.01,1.79.73,1.78,1.61,0,.88-.78,1.6-1.75,1.61M20.69,7.98c-1.8,0-3.26,1.34-3.27,2.98,0,1.64,1.45,2.97,3.26,2.99,1.82,0,3.3-1.32,3.31-2.97,0-1.64-1.49-3-3.3-2.99M20.72,12.57c-.98,0-1.78-.71-1.78-1.61s.78-1.59,1.75-1.61c.97-.01,1.79.73,1.78,1.61,0,.88-.78,1.6-1.75,1.61M20.69,7.98c-1.8,0-3.26,1.34-3.27,2.98,0,1.64,1.45,2.97,3.26,2.99,1.82,0,3.3-1.32,3.31-2.97,0-1.64-1.49-3-3.3-2.99M20.72,12.57c-.98,0-1.78-.71-1.78-1.61s.78-1.59,1.75-1.61c.97-.01,1.79.73,1.78,1.61,0,.88-.78,1.6-1.75,1.61M20.69,7.98c-1.8,0-3.26,1.34-3.27,2.98,0,1.64,1.45,2.97,3.26,2.99,1.82,0,3.3-1.32,3.31-2.97,0-1.64-1.49-3-3.3-2.99M20.72,12.57c-.98,0-1.78-.71-1.78-1.61s.78-1.59,1.75-1.61c.97-.01,1.79.73,1.78,1.61,0,.88-.78,1.6-1.75,1.61M20.69,7.98c-1.8,0-3.26,1.34-3.27,2.98,0,1.64,1.45,2.97,3.26,2.99,1.82,0,3.3-1.32,3.31-2.97,0-1.64-1.49-3-3.3-2.99M20.72,12.57c-.98,0-1.78-.71-1.78-1.61s.78-1.59,1.75-1.61c.97-.01,1.79.73,1.78,1.61,0,.88-.78,1.6-1.75,1.61M20.69,7.98c-1.8,0-3.26,1.34-3.27,2.98,0,1.64,1.45,2.97,3.26,2.99,1.82,0,3.3-1.32,3.31-2.97,0-1.64-1.49-3-3.3-2.99M20.72,12.57c-.98,0-1.78-.71-1.78-1.61s.78-1.59,1.75-1.61c.97-.01,1.79.73,1.78,1.61,0,.88-.78,1.6-1.75,1.61M20.69,7.98c-1.8,0-3.26,1.34-3.27,2.98,0,1.64,1.45,2.97,3.26,2.99,1.82,0,3.3-1.32,3.31-2.97,0-1.64-1.49-3-3.3-2.99M20.72,12.57c-.98,0-1.78-.71-1.78-1.61s.78-1.59,1.75-1.61c.97-.01,1.79.73,1.78,1.61,0,.88-.78,1.6-1.75,1.61M20.69,7.98c-1.8,0-3.26,1.34-3.27,2.98,0,1.64,1.45,2.97,3.26,2.99,1.82,0,3.3-1.32,3.31-2.97,0-1.64-1.49-3-3.3-2.99M27.28,11.6c-.01.17-.05.26-.28.27-1.93.03-3.27,1.92-2.3,3.62.08.14.1.21-.06.31-.41.27-.85.49-1.3.69-.16.07-.23.03-.32-.1-1.2-1.59-3.4-1.58-4.64,0-.05.06-.05.16-.17.14-.56-.21-1.07-.47-1.54-.81-.12-.09.03-.19.07-.27.79-1.47-.07-3.14-1.82-3.53-.08-.02-.17-.03-.26-.04-.53-.05-.54-.05-.55-.54-.01-.34-.02-.68.03-1.02.02-.16.08-.22.27-.23,1.4-.07,2.4-.91,2.61-2.16.08-.51-.02-.99-.29-1.43-.12-.2-.08-.29.12-.39.19-.1.37-.23.57-.33.24-.12.49-.29.74-.32.31-.03.36.32.53.49,1.2,1.17,3.28,1.04,4.26-.29.17-.24.3-.26.56-.13.39.19.77.39,1.13.62.15.09.15.16.07.3-.91,1.74.21,3.51,2.31,3.64.2.01.25.07.26.24.03.42.03.84,0,1.27M28.58,9.18c-.14-.49-.5-.68-1.05-.54-.64.16-1.18-.02-1.47-.47-.3-.46-.19-.97.28-1.39.42-.38.42-.77,0-1.13-.96-.83-2.06-1.43-3.34-1.76-.6-.16-.95.02-1.1.56-.07.27-.21.51-.46.69-.71.49-1.65.17-1.9-.64-.18-.6-.52-.78-1.18-.59-1.23.34-2.31.91-3.24,1.71-.48.41-.48.76-.02,1.17.45.41.55.92.27,1.38-.28.46-.85.64-1.47.49-.58-.14-.95.05-1.09.59-.31,1.16-.3,2.31,0,3.47.14.54.5.74,1.1.59.63-.15,1.16.02,1.44.47.31.46.21.97-.26,1.39-.43.39-.43.76,0,1.13.96.82,2.07,1.41,3.33,1.76.58.16.95-.04,1.11-.57.18-.57.63-.92,1.2-.91.57.02,1.01.36,1.16.91.15.52.52.72,1.08.57,1.2-.32,2.28-.86,3.2-1.63.61-.51.63-.79.06-1.34-.6-.58-.37-1.5.45-1.78.27-.09.54-.07.81,0,.62.15.96-.03,1.12-.6.15-.57.21-1.15.22-1.71-.01-.62-.07-1.22-.25-1.8M20.72,12.57c-.98,0-1.78-.71-1.78-1.61s.78-1.59,1.75-1.61c.97-.01,1.79.73,1.78,1.61,0,.88-.78,1.6-1.75,1.61M20.69,7.98c-1.8,0-3.26,1.34-3.27,2.98,0,1.64,1.45,2.97,3.26,2.99,1.82,0,3.3-1.32,3.31-2.97,0-1.64-1.49-3-3.3-2.99M20.72,12.57c-.98,0-1.78-.71-1.78-1.61s.78-1.59,1.75-1.61c.97-.01,1.79.73,1.78,1.61,0,.88-.78,1.6-1.75,1.61M20.69,7.98c-1.8,0-3.26,1.34-3.27,2.98,0,1.64,1.45,2.97,3.26,2.99,1.82,0,3.3-1.32,3.31-2.97,0-1.64-1.49-3-3.3-2.99M20.72,12.57c-.98,0-1.78-.71-1.78-1.61s.78-1.59,1.75-1.61c.97-.01,1.79.73,1.78,1.61,0,.88-.78,1.6-1.75,1.61M20.69,7.98c-1.8,0-3.26,1.34-3.27,2.98,0,1.64,1.45,2.97,3.26,2.99,1.82,0,3.3-1.32,3.31-2.97,0-1.64-1.49-3-3.3-2.99M20.72,12.57c-.98,0-1.78-.71-1.78-1.61s.78-1.59,1.75-1.61c.97-.01,1.79.73,1.78,1.61,0,.88-.78,1.6-1.75,1.61M20.69,7.98c-1.8,0-3.26,1.34-3.27,2.98,0,1.64,1.45,2.97,3.26,2.99,1.82,0,3.3-1.32,3.31-2.97,0-1.64-1.49-3-3.3-2.99M20.72,12.57c-.98,0-1.78-.71-1.78-1.61s.78-1.59,1.75-1.61c.97-.01,1.79.73,1.78,1.61,0,.88-.78,1.6-1.75,1.61M20.69,7.98c-1.8,0-3.26,1.34-3.27,2.98,0,1.64,1.45,2.97,3.26,2.99,1.82,0,3.3-1.32,3.31-2.97,0-1.64-1.49-3-3.3-2.99M20.72,12.57c-.98,0-1.78-.71-1.78-1.61s.78-1.59,1.75-1.61c.97-.01,1.79.73,1.78,1.61,0,.88-.78,1.6-1.75,1.61M20.69,7.98c-1.8,0-3.26,1.34-3.27,2.98,0,1.64,1.45,2.97,3.26,2.99,1.82,0,3.3-1.32,3.31-2.97,0-1.64-1.49-3-3.3-2.99M20.72,12.57c-.98,0-1.78-.71-1.78-1.61s.78-1.59,1.75-1.61c.97-.01,1.79.73,1.78,1.61,0,.88-.78,1.6-1.75,1.61M20.69,7.98c-1.8,0-3.26,1.34-3.27,2.98,0,1.64,1.45,2.97,3.26,2.99,1.82,0,3.3-1.32,3.31-2.97,0-1.64-1.49-3-3.3-2.99M20.72,12.57c-.98,0-1.78-.71-1.78-1.61s.78-1.59,1.75-1.61c.97-.01,1.79.73,1.78,1.61,0,.88-.78,1.6-1.75,1.61M20.69,7.98c-1.8,0-3.26,1.34-3.27,2.98,0,1.64,1.45,2.97,3.26,2.99,1.82,0,3.3-1.32,3.31-2.97,0-1.64-1.49-3-3.3-2.99M20.72,12.57c-.98,0-1.78-.71-1.78-1.61s.78-1.59,1.75-1.61c.97-.01,1.79.73,1.78,1.61,0,.88-.78,1.6-1.75,1.61M20.69,7.98c-1.8,0-3.26,1.34-3.27,2.98,0,1.64,1.45,2.97,3.26,2.99,1.82,0,3.3-1.32,3.31-2.97,0-1.64-1.49-3-3.3-2.99M20.72,12.57c-.98,0-1.78-.71-1.78-1.61s.78-1.59,1.75-1.61c.97-.01,1.79.73,1.78,1.61,0,.88-.78,1.6-1.75,1.61M20.69,7.98c-1.8,0-3.26,1.34-3.27,2.98,0,1.64,1.45,2.97,3.26,2.99,1.82,0,3.3-1.32,3.31-2.97,0-1.64-1.49-3-3.3-2.99M20.72,12.57c-.98,0-1.78-.71-1.78-1.61s.78-1.59,1.75-1.61c.97-.01,1.79.73,1.78,1.61,0,.88-.78,1.6-1.75,1.61M20.69,7.98c-1.8,0-3.26,1.34-3.27,2.98,0,1.64,1.45,2.97,3.26,2.99,1.82,0,3.3-1.32,3.31-2.97,0-1.64-1.49-3-3.3-2.99M20.72,12.57c-.98,0-1.78-.71-1.78-1.61s.78-1.59,1.75-1.61c.97-.01,1.79.73,1.78,1.61,0,.88-.78,1.6-1.75,1.61M20.69,7.98c-1.8,0-3.26,1.34-3.27,2.98,0,1.64,1.45,2.97,3.26,2.99,1.82,0,3.3-1.32,3.31-2.97,0-1.64-1.49-3-3.3-2.99M20.72,12.57c-.98,0-1.78-.71-1.78-1.61s.78-1.59,1.75-1.61c.97-.01,1.79.73,1.78,1.61,0,.88-.78,1.6-1.75,1.61M20.69,7.98c-1.8,0-3.26,1.34-3.27,2.98,0,1.64,1.45,2.97,3.26,2.99,1.82,0,3.3-1.32,3.31-2.97,0-1.64-1.49-3-3.3-2.99M20.72,12.57c-.98,0-1.78-.71-1.78-1.61s.78-1.59,1.75-1.61c.97-.01,1.79.73,1.78,1.61,0,.88-.78,1.6-1.75,1.61M20.69,7.98c-1.8,0-3.26,1.34-3.27,2.98,0,1.64,1.45,2.97,3.26,2.99,1.82,0,3.3-1.32,3.31-2.97,0-1.64-1.49-3-3.3-2.99M20.72,12.57c-.98,0-1.78-.71-1.78-1.61s.78-1.59,1.75-1.61c.97-.01,1.79.73,1.78,1.61,0,.88-.78,1.6-1.75,1.61M20.69,7.98c-1.8,0-3.26,1.34-3.27,2.98,0,1.64,1.45,2.97,3.26,2.99,1.82,0,3.3-1.32,3.31-2.97,0-1.64-1.49-3-3.3-2.99M20.72,12.57c-.98,0-1.78-.71-1.78-1.61s.78-1.59,1.75-1.61c.97-.01,1.79.73,1.78,1.61,0,.88-.78,1.6-1.75,1.61M20.69,7.98c-1.8,0-3.26,1.34-3.27,2.98,0,1.64,1.45,2.97,3.26,2.99,1.82,0,3.3-1.32,3.31-2.97,0-1.64-1.49-3-3.3-2.99M20.72,12.57c-.98,0-1.78-.71-1.78-1.61s.78-1.59,1.75-1.61c.97-.01,1.79.73,1.78,1.61,0,.88-.78,1.6-1.75,1.61M20.69,7.98c-1.8,0-3.26,1.34-3.27,2.98,0,1.64,1.45,2.97,3.26,2.99,1.82,0,3.3-1.32,3.31-2.97,0-1.64-1.49-3-3.3-2.99M20.72,12.57c-.98,0-1.78-.71-1.78-1.61s.78-1.59,1.75-1.61c.97-.01,1.79.73,1.78,1.61,0,.88-.78,1.6-1.75,1.61M20.69,7.98c-1.8,0-3.26,1.34-3.27,2.98,0,1.64,1.45,2.97,3.26,2.99,1.82,0,3.3-1.32,3.31-2.97,0-1.64-1.49-3-3.3-2.99M20.72,12.57c-.98,0-1.78-.71-1.78-1.61s.78-1.59,1.75-1.61c.97-.01,1.79.73,1.78,1.61,0,.88-.78,1.6-1.75,1.61M20.69,7.98c-1.8,0-3.26,1.34-3.27,2.98,0,1.64,1.45,2.97,3.26,2.99,1.82,0,3.3-1.32,3.31-2.97,0-1.64-1.49-3-3.3-2.99M20.72,12.57c-.98,0-1.78-.71-1.78-1.61s.78-1.59,1.75-1.61c.97-.01,1.79.73,1.78,1.61,0,.88-.78,1.6-1.75,1.61M20.69,7.98c-1.8,0-3.26,1.34-3.27,2.98,0,1.64,1.45,2.97,3.26,2.99,1.82,0,3.3-1.32,3.31-2.97,0-1.64-1.49-3-3.3-2.99M20.72,12.57c-.98,0-1.78-.71-1.78-1.61s.78-1.59,1.75-1.61c.97-.01,1.79.73,1.78,1.61,0,.88-.78,1.6-1.75,1.61M20.69,7.98c-1.8,0-3.26,1.34-3.27,2.98,0,1.64,1.45,2.97,3.26,2.99,1.82,0,3.3-1.32,3.31-2.97,0-1.64-1.49-3-3.3-2.99M20.72,12.57c-.98,0-1.78-.71-1.78-1.61s.78-1.59,1.75-1.61c.97-.01,1.79.73,1.78,1.61,0,.88-.78,1.6-1.75,1.61M20.69,7.98c-1.8,0-3.26,1.34-3.27,2.98,0,1.64,1.45,2.97,3.26,2.99,1.82,0,3.3-1.32,3.31-2.97,0-1.64-1.49-3-3.3-2.99M20.72,12.57c-.98,0-1.78-.71-1.78-1.61s.78-1.59,1.75-1.61c.97-.01,1.79.73,1.78,1.61,0,.88-.78,1.6-1.75,1.61M20.69,7.98c-1.8,0-3.26,1.34-3.27,2.98,0,1.64,1.45,2.97,3.26,2.99,1.82,0,3.3-1.32,3.31-2.97,0-1.64-1.49-3-3.3-2.99M20.72,12.57c-.98,0-1.78-.71-1.78-1.61s.78-1.59,1.75-1.61c.97-.01,1.79.73,1.78,1.61,0,.88-.78,1.6-1.75,1.61M20.69,7.98c-1.8,0-3.26,1.34-3.27,2.98,0,1.64,1.45,2.97,3.26,2.99,1.82,0,3.3-1.32,3.31-2.97,0-1.64-1.49-3-3.3-2.99"/>
    <path class="cls-1" d="M7.04,12.98c.21-.32.63-.44,1.01-.25.19.08.37.19.61.31-.17-.85-.24-1.65-.18-2.45.34-4.46,2.68-7.75,7.17-9.58,6.97-2.86,14.88.63,16.73,7.37,1.09,3.94-.05,7.42-3.11,10.39-.4.39-.85.42-1.19.12-.32-.28-.28-.7.1-1.06,1.54-1.45,2.51-3.16,2.9-5.14.88-4.39-1.84-8.86-6.43-10.57-6.39-2.37-13.48,1.26-14.57,7.46-.17.98-.13,2.49.09,3.19.16-.21.29-.4.44-.57.26-.31.7-.38,1.04-.17.33.21.44.61.2.94-.46.64-.94,1.28-1.43,1.9-.23.3-.62.37-.98.19-.72-.37-1.44-.75-2.15-1.15-.38-.21-.48-.6-.26-.93"/>
    <path class="cls-1" d="M32.53,26.76c.76-.15,1.52-.32,2.28-.46,1.81-.34,3.57.73,3.91,2.39.01.04.01.09.07.11-.2-.01-.17-.18-.21-.29-.53-1.57-2.07-2.45-3.85-2.1-2.32.46-4.63.94-6.94,1.44-1.32.29-2.64.41-3.97.13-.06-.01-.12-.02-.18-.04-.19-.05-.44-.05-.51-.24,1.06.32,2.13.44,3.2.28,2.09-.3,4.13-.82,6.2-1.24"/>
    <path class="cls-1" d="M38.73,29.75s.02,0,.03,0h-.03c-.27,1.22-1.04,2.03-2.33,2.34-2.46.6-4.93,1.16-7.39,1.72-1.08.25-2.15.55-3.28.63-1.46.1-2.86-.11-4.22-.6-1.68-.61-3.37-1.21-5.06-1.8-.29-.1-.52-.24-.59-.52-.06-.26,0-.51.24-.69.24-.19.52-.22.82-.11,1.05.38,2.11.76,3.16,1.13.97.33,1.91.73,2.9.99,1.62.43,3.21.24,4.81-.15,2.64-.64,5.29-1.24,7.94-1.84.95-.22,1.51-.75,1.57-1.5.09-1.12-1.03-1.95-2.27-1.69-2.51.52-5.01,1.04-7.52,1.56-1.85.38-3.66.24-5.42-.38-2.35-.82-4.7-1.64-7.05-2.46-.05-.01-.09-.03-.14-.05-.49-.18-.69-.52-.54-.92.15-.39.58-.53,1.1-.36,1.06.37,2.12.74,3.18,1.11.57.2,1.15.4,1.73.6,1.07.36,2.14-.05,2.56-.98.42-.94-.03-1.9-1.11-2.3-2.41-.92-4.83-1.82-7.25-2.73-.15-.05-.29-.07-.44-.07-2.18,0-4.35,0-6.52,0-.27,0-.32.08-.32.3.01,2.39.01,4.77,0,7.15,0,.25.08.3.34.3.87-.01,1.74,0,2.61,0,.41,0,.71.22.78.54s-.1.64-.42.77c-.17.07-.34.06-.52.06-.81,0-1.62.02-2.42,0-.31-.01-.4.09-.36.35.02.09,0,.18,0,.28-.03.46-.32.73-.82.73-1.87,0-3.74,0-5.61,0-.52,0-.83-.28-.83-.75C0,26.4,0,22.41,0,18.42c0-.47.3-.74.83-.75,1.87,0,3.74,0,5.61,0,.5,0,.79.27.82.73,0,.02,0,.04,0,.07.01.26-.09.62.05.76.2.19.59.06.91.06,1.98,0,3.96,0,5.95,0,.31,0,.59.04.88.15,2.41.92,4.82,1.86,7.25,2.72,2.5.88,3.06,3.85.94,5.43-.03.02-.06.05-.11.09-.04-.18.18-.26.3-.37,1.38-1.29,1.35-3.25-.09-4.46-.34-.29-.75-.46-1.17-.62-2.36-.9-4.74-1.77-7.1-2.68-.28-.11-.57-.16-.88-.16-2.07,0-4.14,0-6.22,0-.14,0-.27,0-.42,0-.24,0-.37-.12-.38-.34,0-.2,0-.39-.02-.59-.03-.45-.3-.71-.79-.71-1.82-.02-3.64-.02-5.46,0-.54,0-.8.27-.8.76,0,3.92,0,7.84,0,11.76,0,.51.26.75.82.75,1.79,0,3.59,0,5.38,0,.58,0,.83-.25.86-.79.03-.55.06-.58.66-.58.73,0,1.46,0,2.2,0,.15,0,.3.01.45-.04.23-.09.37-.24.39-.47.02-.25-.12-.44-.37-.55-.21-.1-.43-.11-.67-.11-.71,0-1.41,0-2.12,0-.46,0-.54-.07-.54-.48,0-2.31,0-4.63,0-6.95,0-.4.08-.47.51-.47,2.14,0,4.29,0,6.44,0,.21,0,.4.04.59.12,2.4.91,4.81,1.79,7.2,2.72.81.31,1.25.95,1.23,1.74-.01.73-.55,1.44-1.31,1.71-.53.18-1.06.14-1.59-.03-1.54-.52-3.07-1.07-4.6-1.6-.12-.04-.24-.09-.36-.12-.36-.09-.69.04-.82.32-.13.28-.02.54.3.73.1.06.2.1.31.14,2.48.87,4.96,1.76,7.46,2.59,1.5.49,3.06.59,4.63.29,2.31-.44,4.61-.95,6.91-1.42.47-.1.93-.23,1.42-.23.94,0,1.7.58,1.87,1.42.16.76-.36,1.57-1.19,1.87-.17.06-.36.11-.54.15-2.77.63-5.54,1.26-8.29,1.92-.8.19-1.61.31-2.43.31-1.04,0-2.05-.24-3.02-.59-1.6-.58-3.21-1.15-4.83-1.72-.06-.02-.12-.04-.18-.06-.39-.12-.74,0-.87.27-.15.32.01.66.41.81,1.11.42,2.23.8,3.35,1.2.62.22,1.25.45,1.87.67,1.06.39,2.18.58,3.32.59.76,0,1.51-.08,2.25-.25,2.97-.69,5.95-1.37,8.92-2.06,1.24-.29,2.07-.96,2.46-2.07.03-.07.05-.15.11-.22.02-.01.03-.02.04-.02h0Z"/>
    <path class="cls-1" d="M5.75,29.48c0,.23-.07.29-.32.29-1.21-.01-2.42-.01-3.63,0-.24,0-.28-.07-.28-.27,0-1.7,0-3.39,0-5.09s0-3.37,0-5.06c0-.25.05-.32.35-.32,1.18.02,2.37.02,3.56,0,.27,0,.33.06.33.31,0,3.37,0,6.76,0,10.13M38.73,28.69c-.34-1.66-2.1-2.73-3.91-2.39-.77.14-1.53.31-2.29.46-2.07.41-4.11.94-6.2,1.24-1.07.15-2.13.04-3.2-.28h0s-.01,0-.03-.01c0,0,.01,0,.02-.02.05-.04.09-.07.12-.09,2.12-1.57,1.56-4.54-.94-5.42-2.44-.86-4.84-1.81-7.25-2.73-.29-.11-.58-.15-.88-.15-1.98,0-3.96,0-5.95,0-.32,0-.72.12-.91-.06-.14-.14-.04-.5-.05-.76,0-.02,0-.05,0-.07-.03-.46-.32-.73-.82-.73-1.86,0-3.74,0-5.6,0-.52,0-.83.28-.83.75C0,22.41,0,26.4,0,30.38c0,.48.3.75.83.75,1.86,0,3.74,0,5.6,0,.5,0,.79-.27.82-.73,0-.09.02-.18,0-.27-.03-.26.05-.36.36-.34.81.02,1.61,0,2.42,0,.18,0,.35,0,.52-.07.32-.13.5-.46.43-.77-.07-.31-.37-.53-.78-.53-.88-.01-1.75-.02-2.61,0-.26,0-.35-.05-.35-.3.01-2.39.01-4.77,0-7.16,0-.22.06-.31.33-.31,2.17.01,4.34,0,6.51,0,.15,0,.3.02.44.07,2.42.91,4.84,1.81,7.26,2.73,1.07.41,1.53,1.36,1.1,2.31-.41.93-1.49,1.34-2.55.98-.58-.2-1.16-.4-1.73-.6-1.06-.37-2.12-.74-3.18-1.11-.51-.18-.94-.03-1.09.36-.15.39.05.74.54.92.05.02.1.04.14.05,2.35.82,4.7,1.64,7.05,2.46,1.76.62,3.57.76,5.42.38,2.51-.51,5.01-1.03,7.52-1.55,1.25-.26,2.37.57,2.28,1.69-.06.75-.63,1.28-1.58,1.51-2.65.61-5.3,1.21-7.94,1.84-1.6.38-3.19.57-4.81.14-.98-.26-1.93-.66-2.89-.99-1.05-.38-2.11-.75-3.16-1.13-.3-.11-.57-.07-.82.11-.23.18-.3.43-.23.69.08.29.31.43.59.52,1.69.59,3.38,1.19,5.06,1.8,1.36.49,2.76.71,4.23.61,1.13-.09,2.2-.39,3.28-.64,2.46-.56,4.93-1.11,7.39-1.72,1.29-.32,2.07-1.12,2.33-2.33,0,0,0,0,0-.02.05-.09,0-.21.04-.3,0-.01,0-.03.02-.03v-.62c-.06-.02-.06-.06-.07-.11"/>
    <path class="cls-1" d="M20.72,12.57c-.98,0-1.78-.71-1.78-1.61s.78-1.59,1.75-1.61c.97-.01,1.79.73,1.78,1.61,0,.88-.78,1.6-1.75,1.61M20.69,7.98c-1.8,0-3.26,1.34-3.27,2.98,0,1.64,1.45,2.97,3.26,2.99,1.82,0,3.3-1.32,3.31-2.97,0-1.64-1.49-3-3.3-2.99M20.72,12.57c-.98,0-1.78-.71-1.78-1.61s.78-1.59,1.75-1.61c.97-.01,1.79.73,1.78,1.61,0,.88-.78,1.6-1.75,1.61M20.69,7.98c-1.8,0-3.26,1.34-3.27,2.98,0,1.64,1.45,2.97,3.26,2.99,1.82,0,3.3-1.32,3.31-2.97,0-1.64-1.49-3-3.3-2.99M20.72,12.57c-.98,0-1.78-.71-1.78-1.61s.78-1.59,1.75-1.61c.97-.01,1.79.73,1.78,1.61,0,.88-.78,1.6-1.75,1.61M20.69,7.98c-1.8,0-3.26,1.34-3.27,2.98,0,1.64,1.45,2.97,3.26,2.99,1.82,0,3.3-1.32,3.31-2.97,0-1.64-1.49-3-3.3-2.99M20.72,12.57c-.98,0-1.78-.71-1.78-1.61s.78-1.59,1.75-1.61c.97-.01,1.79.73,1.78,1.61,0,.88-.78,1.6-1.75,1.61M20.69,7.98c-1.8,0-3.26,1.34-3.27,2.98,0,1.64,1.45,2.97,3.26,2.99,1.82,0,3.3-1.32,3.31-2.97,0-1.64-1.49-3-3.3-2.99M20.72,12.57c-.98,0-1.78-.71-1.78-1.61s.78-1.59,1.75-1.61c.97-.01,1.79.73,1.78,1.61,0,.88-.78,1.6-1.75,1.61M20.69,7.98c-1.8,0-3.26,1.34-3.27,2.98,0,1.64,1.45,2.97,3.26,2.99,1.82,0,3.3-1.32,3.31-2.97,0-1.64-1.49-3-3.3-2.99M20.72,12.57c-.98,0-1.78-.71-1.78-1.61s.78-1.59,1.75-1.61c.97-.01,1.79.73,1.78,1.61,0,.88-.78,1.6-1.75,1.61M20.69,7.98c-1.8,0-3.26,1.34-3.27,2.98,0,1.64,1.45,2.97,3.26,2.99,1.82,0,3.3-1.32,3.31-2.97,0-1.64-1.49-3-3.3-2.99M20.72,12.57c-.98,0-1.78-.71-1.78-1.61s.78-1.59,1.75-1.61c.97-.01,1.79.73,1.78,1.61,0,.88-.78,1.6-1.75,1.61M20.69,7.98c-1.8,0-3.26,1.34-3.27,2.98,0,1.64,1.45,2.97,3.26,2.99,1.82,0,3.3-1.32,3.31-2.97,0-1.64-1.49-3-3.3-2.99M20.72,12.57c-.98,0-1.78-.71-1.78-1.61s.78-1.59,1.75-1.61c.97-.01,1.79.73,1.78,1.61,0,.88-.78,1.6-1.75,1.61M20.69,7.98c-1.8,0-3.26,1.34-3.27,2.98,0,1.64,1.45,2.97,3.26,2.99,1.82,0,3.3-1.32,3.31-2.97,0-1.64-1.49-3-3.3-2.99M20.72,12.57c-.98,0-1.78-.71-1.78-1.61s.78-1.59,1.75-1.61c.97-.01,1.79.73,1.78,1.61,0,.88-.78,1.6-1.75,1.61M20.69,7.98c-1.8,0-3.26,1.34-3.27,2.98,0,1.64,1.45,2.97,3.26,2.99,1.82,0,3.3-1.32,3.31-2.97,0-1.64-1.49-3-3.3-2.99M20.72,12.57c-.98,0-1.78-.71-1.78-1.61s.78-1.59,1.75-1.61c.97-.01,1.79.73,1.78,1.61,0,.88-.78,1.6-1.75,1.61M20.69,7.98c-1.8,0-3.26,1.34-3.27,2.98,0,1.64,1.45,2.97,3.26,2.99,1.82,0,3.3-1.32,3.31-2.97,0-1.64-1.49-3-3.3-2.99M20.72,12.57c-.98,0-1.78-.71-1.78-1.61s.78-1.59,1.75-1.61c.97-.01,1.79.73,1.78,1.61,0,.88-.78,1.6-1.75,1.61M20.69,7.98c-1.8,0-3.26,1.34-3.27,2.98,0,1.64,1.45,2.97,3.26,2.99,1.82,0,3.3-1.32,3.31-2.97,0-1.64-1.49-3-3.3-2.99M20.72,12.57c-.98,0-1.78-.71-1.78-1.61s.78-1.59,1.75-1.61c.97-.01,1.79.73,1.78,1.61,0,.88-.78,1.6-1.75,1.61M20.69,7.98c-1.8,0-3.26,1.34-3.27,2.98,0,1.64,1.45,2.97,3.26,2.99,1.82,0,3.3-1.32,3.31-2.97,0-1.64-1.49-3-3.3-2.99M20.72,12.57c-.98,0-1.78-.71-1.78-1.61s.78-1.59,1.75-1.61c.97-.01,1.79.73,1.78,1.61,0,.88-.78,1.6-1.75,1.61M20.69,7.98c-1.8,0-3.26,1.34-3.27,2.98,0,1.64,1.45,2.97,3.26,2.99,1.82,0,3.3-1.32,3.31-2.97,0-1.64-1.49-3-3.3-2.99M20.72,12.57c-.98,0-1.78-.71-1.78-1.61s.78-1.59,1.75-1.61c.97-.01,1.79.73,1.78,1.61,0,.88-.78,1.6-1.75,1.61M20.69,7.98c-1.8,0-3.26,1.34-3.27,2.98,0,1.64,1.45,2.97,3.26,2.99,1.82,0,3.3-1.32,3.31-2.97,0-1.64-1.49-3-3.3-2.99M20.72,12.57c-.98,0-1.78-.71-1.78-1.61s.78-1.59,1.75-1.61c.97-.01,1.79.73,1.78,1.61,0,.88-.78,1.6-1.75,1.61M20.69,7.98c-1.8,0-3.26,1.34-3.27,2.98,0,1.64,1.45,2.97,3.26,2.99,1.82,0,3.3-1.32,3.31-2.97,0-1.64-1.49-3-3.3-2.99M20.72,12.57c-.98,0-1.78-.71-1.78-1.61s.78-1.59,1.75-1.61c.97-.01,1.79.73,1.78,1.61,0,.88-.78,1.6-1.75,1.61M20.69,7.98c-1.8,0-3.26,1.34-3.27,2.98,0,1.64,1.45,2.97,3.26,2.99,1.82,0,3.3-1.32,3.31-2.97,0-1.64-1.49-3-3.3-2.99M20.72,12.57c-.98,0-1.78-.71-1.78-1.61s.78-1.59,1.75-1.61c.97-.01,1.79.73,1.78,1.61,0,.88-.78,1.6-1.75,1.61M20.69,7.98c-1.8,0-3.26,1.34-3.27,2.98,0,1.64,1.45,2.97,3.26,2.99,1.82,0,3.3-1.32,3.31-2.97,0-1.64-1.49-3-3.3-2.99M20.72,12.57c-.98,0-1.78-.71-1.78-1.61s.78-1.59,1.75-1.61c.97-.01,1.79.73,1.78,1.61,0,.88-.78,1.6-1.75,1.61M20.69,7.98c-1.8,0-3.26,1.34-3.27,2.98,0,1.64,1.45,2.97,3.26,2.99,1.82,0,3.3-1.32,3.31-2.97,0-1.64-1.49-3-3.3-2.99M20.72,12.57c-.98,0-1.78-.71-1.78-1.61s.78-1.59,1.75-1.61c.97-.01,1.79.73,1.78,1.61,0,.88-.78,1.6-1.75,1.61M20.69,7.98c-1.8,0-3.26,1.34-3.27,2.98,0,1.64,1.45,2.97,3.26,2.99,1.82,0,3.3-1.32,3.31-2.97,0-1.64-1.49-3-3.3-2.99M20.72,12.57c-.98,0-1.78-.71-1.78-1.61s.78-1.59,1.75-1.61c.97-.01,1.79.73,1.78,1.61,0,.88-.78,1.6-1.75,1.61M20.69,7.98c-1.8,0-3.26,1.34-3.27,2.98,0,1.64,1.45,2.97,3.26,2.99,1.82,0,3.3-1.32,3.31-2.97,0-1.64-1.49-3-3.3-2.99M20.72,12.57c-.98,0-1.78-.71-1.78-1.61s.78-1.59,1.75-1.61c.97-.01,1.79.73,1.78,1.61,0,.88-.78,1.6-1.75,1.61M20.69,7.98c-1.8,0-3.26,1.34-3.27,2.98,0,1.64,1.45,2.97,3.26,2.99,1.82,0,3.3-1.32,3.31-2.97,0-1.64-1.49-3-3.3-2.99M20.72,12.57c-.98,0-1.78-.71-1.78-1.61s.78-1.59,1.75-1.61c.97-.01,1.79.73,1.78,1.61,0,.88-.78,1.6-1.75,1.61M20.69,7.98c-1.8,0-3.26,1.34-3.27,2.98,0,1.64,1.45,2.97,3.26,2.99,1.82,0,3.3-1.32,3.31-2.97,0-1.64-1.49-3-3.3-2.99M20.72,12.57c-.98,0-1.78-.71-1.78-1.61s.78-1.59,1.75-1.61c.97-.01,1.79.73,1.78,1.61,0,.88-.78,1.6-1.75,1.61M20.69,7.98c-1.8,0-3.26,1.34-3.27,2.98,0,1.64,1.45,2.97,3.26,2.99,1.82,0,3.3-1.32,3.31-2.97,0-1.64-1.49-3-3.3-2.99M20.72,12.57c-.98,0-1.78-.71-1.78-1.61s.78-1.59,1.75-1.61c.97-.01,1.79.73,1.78,1.61,0,.88-.78,1.6-1.75,1.61M20.69,7.98c-1.8,0-3.26,1.34-3.27,2.98,0,1.64,1.45,2.97,3.26,2.99,1.82,0,3.3-1.32,3.31-2.97,0-1.64-1.49-3-3.3-2.99M20.72,12.57c-.98,0-1.78-.71-1.78-1.61s.78-1.59,1.75-1.61c.97-.01,1.79.73,1.78,1.61,0,.88-.78,1.6-1.75,1.61M20.69,7.98c-1.8,0-3.26,1.34-3.27,2.98,0,1.64,1.45,2.97,3.26,2.99,1.82,0,3.3-1.32,3.31-2.97,0-1.64-1.49-3-3.3-2.99M27.28,11.6c-.01.17-.05.26-.28.27-1.93.03-3.27,1.92-2.3,3.62.08.14.1.21-.06.31-.41.27-.85.49-1.3.69-.16.07-.23.03-.32-.1-1.2-1.59-3.4-1.58-4.64,0-.05.06-.05.16-.17.14-.56-.21-1.07-.47-1.54-.81-.12-.09.03-.19.07-.27.79-1.47-.07-3.14-1.82-3.53-.08-.02-.17-.03-.26-.04-.53-.05-.54-.05-.55-.54-.01-.34-.02-.68.03-1.02.02-.16.08-.22.27-.23,1.4-.07,2.4-.91,2.61-2.16.08-.51-.02-.99-.29-1.43-.12-.2-.08-.29.12-.39.19-.1.37-.23.57-.33.24-.12.49-.29.74-.32.31-.03.36.32.53.49,1.2,1.17,3.28,1.04,4.26-.29.17-.24.3-.26.56-.13.39.19.77.39,1.13.62.15.09.15.16.07.3-.91,1.74.21,3.51,2.31,3.64.2.01.25.07.26.24.03.42.03.84,0,1.27M28.58,9.18c-.14-.49-.5-.68-1.05-.54-.64.16-1.18-.02-1.47-.47-.3-.46-.19-.97.28-1.39.42-.38.42-.77,0-1.13-.96-.83-2.06-1.43-3.34-1.76-.6-.16-.95.02-1.1.56-.07.27-.21.51-.46.69-.71.49-1.65.17-1.9-.64-.18-.6-.52-.78-1.18-.59-1.23.34-2.31.91-3.24,1.71-.48.41-.48.76-.02,1.17.45.41.55.92.27,1.38-.28.46-.85.64-1.47.49-.58-.14-.95.05-1.09.59-.31,1.16-.3,2.31,0,3.47.14.54.5.74,1.1.59.63-.15,1.16.02,1.44.47.31.46.21.97-.26,1.39-.43.39-.43.76,0,1.13.96.82,2.07,1.41,3.33,1.76.58.16.95-.04,1.11-.57.18-.57.63-.92,1.2-.91.57.02,1.01.36,1.16.91.15.52.52.72,1.08.57,1.2-.32,2.28-.86,3.2-1.63.61-.51.63-.79.06-1.34-.6-.58-.37-1.5.45-1.78.27-.09.54-.07.81,0,.62.15.96-.03,1.12-.6.15-.57.21-1.15.22-1.71-.01-.62-.07-1.22-.25-1.8M20.72,12.57c-.98,0-1.78-.71-1.78-1.61s.78-1.59,1.75-1.61c.97-.01,1.79.73,1.78,1.61,0,.88-.78,1.6-1.75,1.61M20.69,7.98c-1.8,0-3.26,1.34-3.27,2.98,0,1.64,1.45,2.97,3.26,2.99,1.82,0,3.3-1.32,3.31-2.97,0-1.64-1.49-3-3.3-2.99M20.72,12.57c-.98,0-1.78-.71-1.78-1.61s.78-1.59,1.75-1.61c.97-.01,1.79.73,1.78,1.61,0,.88-.78,1.6-1.75,1.61M20.69,7.98c-1.8,0-3.26,1.34-3.27,2.98,0,1.64,1.45,2.97,3.26,2.99,1.82,0,3.3-1.32,3.31-2.97,0-1.64-1.49-3-3.3-2.99M20.72,12.57c-.98,0-1.78-.71-1.78-1.61s.78-1.59,1.75-1.61c.97-.01,1.79.73,1.78,1.61,0,.88-.78,1.6-1.75,1.61M20.69,7.98c-1.8,0-3.26,1.34-3.27,2.98,0,1.64,1.45,2.97,3.26,2.99,1.82,0,3.3-1.32,3.31-2.97,0-1.64-1.49-3-3.3-2.99M20.72,12.57c-.98,0-1.78-.71-1.78-1.61s.78-1.59,1.75-1.61c.97-.01,1.79.73,1.78,1.61,0,.88-.78,1.6-1.75,1.61M20.69,7.98c-1.8,0-3.26,1.34-3.27,2.98,0,1.64,1.45,2.97,3.26,2.99,1.82,0,3.3-1.32,3.31-2.97,0-1.64-1.49-3-3.3-2.99M20.72,12.57c-.98,0-1.78-.71-1.78-1.61s.78-1.59,1.75-1.61c.97-.01,1.79.73,1.78,1.61,0,.88-.78,1.6-1.75,1.61M20.69,7.98c-1.8,0-3.26,1.34-3.27,2.98,0,1.64,1.45,2.97,3.26,2.99,1.82,0,3.3-1.32,3.31-2.97,0-1.64-1.49-3-3.3-2.99M20.72,12.57c-.98,0-1.78-.71-1.78-1.61s.78-1.59,1.75-1.61c.97-.01,1.79.73,1.78,1.61,0,.88-.78,1.6-1.75,1.61M20.69,7.98c-1.8,0-3.26,1.34-3.27,2.98,0,1.64,1.45,2.97,3.26,2.99,1.82,0,3.3-1.32,3.31-2.97,0-1.64-1.49-3-3.3-2.99M20.72,12.57c-.98,0-1.78-.71-1.78-1.61s.78-1.59,1.75-1.61c.97-.01,1.79.73,1.78,1.61,0,.88-.78,1.6-1.75,1.61M20.69,7.98c-1.8,0-3.26,1.34-3.27,2.98,0,1.64,1.45,2.97,3.26,2.99,1.82,0,3.3-1.32,3.31-2.97,0-1.64-1.49-3-3.3-2.99M20.72,12.57c-.98,0-1.78-.71-1.78-1.61s.78-1.59,1.75-1.61c.97-.01,1.79.73,1.78,1.61,0,.88-.78,1.6-1.75,1.61M20.69,7.98c-1.8,0-3.26,1.34-3.27,2.98,0,1.64,1.45,2.97,3.26,2.99,1.82,0,3.3-1.32,3.31-2.97,0-1.64-1.49-3-3.3-2.99M20.72,12.57c-.98,0-1.78-.71-1.78-1.61s.78-1.59,1.75-1.61c.97-.01,1.79.73,1.78,1.61,0,.88-.78,1.6-1.75,1.61M20.69,7.98c-1.8,0-3.26,1.34-3.27,2.98,0,1.64,1.45,2.97,3.26,2.99,1.82,0,3.3-1.32,3.31-2.97,0-1.64-1.49-3-3.3-2.99M20.72,12.57c-.98,0-1.78-.71-1.78-1.61s.78-1.59,1.75-1.61c.97-.01,1.79.73,1.78,1.61,0,.88-.78,1.6-1.75,1.61M20.69,7.98c-1.8,0-3.26,1.34-3.27,2.98,0,1.64,1.45,2.97,3.26,2.99,1.82,0,3.3-1.32,3.31-2.97,0-1.64-1.49-3-3.3-2.99M20.72,12.57c-.98,0-1.78-.71-1.78-1.61s.78-1.59,1.75-1.61c.97-.01,1.79.73,1.78,1.61,0,.88-.78,1.6-1.75,1.61M20.69,7.98c-1.8,0-3.26,1.34-3.27,2.98,0,1.64,1.45,2.97,3.26,2.99,1.82,0,3.3-1.32,3.31-2.97,0-1.64-1.49-3-3.3-2.99M20.72,12.57c-.98,0-1.78-.71-1.78-1.61s.78-1.59,1.75-1.61c.97-.01,1.79.73,1.78,1.61,0,.88-.78,1.6-1.75,1.61M20.69,7.98c-1.8,0-3.26,1.34-3.27,2.98,0,1.64,1.45,2.97,3.26,2.99,1.82,0,3.3-1.32,3.31-2.97,0-1.64-1.49-3-3.3-2.99M20.72,12.57c-.98,0-1.78-.71-1.78-1.61s.78-1.59,1.75-1.61c.97-.01,1.79.73,1.78,1.61,0,.88-.78,1.6-1.75,1.61M20.69,7.98c-1.8,0-3.26,1.34-3.27,2.98,0,1.64,1.45,2.97,3.26,2.99,1.82,0,3.3-1.32,3.31-2.97,0-1.64-1.49-3-3.3-2.99M20.72,12.57c-.98,0-1.78-.71-1.78-1.61s.78-1.59,1.75-1.61c.97-.01,1.79.73,1.78,1.61,0,.88-.78,1.6-1.75,1.61M20.69,7.98c-1.8,0-3.26,1.34-3.27,2.98,0,1.64,1.45,2.97,3.26,2.99,1.82,0,3.3-1.32,3.31-2.97,0-1.64-1.49-3-3.3-2.99M20.72,12.57c-.98,0-1.78-.71-1.78-1.61s.78-1.59,1.75-1.61c.97-.01,1.79.73,1.78,1.61,0,.88-.78,1.6-1.75,1.61M20.69,7.98c-1.8,0-3.26,1.34-3.27,2.98,0,1.64,1.45,2.97,3.26,2.99,1.82,0,3.3-1.32,3.31-2.97,0-1.64-1.49-3-3.3-2.99M20.72,12.57c-.98,0-1.78-.71-1.78-1.61s.78-1.59,1.75-1.61c.97-.01,1.79.73,1.78,1.61,0,.88-.78,1.6-1.75,1.61M20.69,7.98c-1.8,0-3.26,1.34-3.27,2.98,0,1.64,1.45,2.97,3.26,2.99,1.82,0,3.3-1.32,3.31-2.97,0-1.64-1.49-3-3.3-2.99M20.72,12.57c-.98,0-1.78-.71-1.78-1.61s.78-1.59,1.75-1.61c.97-.01,1.79.73,1.78,1.61,0,.88-.78,1.6-1.75,1.61M20.69,7.98c-1.8,0-3.26,1.34-3.27,2.98,0,1.64,1.45,2.97,3.26,2.99,1.82,0,3.3-1.32,3.31-2.97,0-1.64-1.49-3-3.3-2.99M20.72,12.57c-.98,0-1.78-.71-1.78-1.61s.78-1.59,1.75-1.61c.97-.01,1.79.73,1.78,1.61,0,.88-.78,1.6-1.75,1.61M20.69,7.98c-1.8,0-3.26,1.34-3.27,2.98,0,1.64,1.45,2.97,3.26,2.99,1.82,0,3.3-1.32,3.31-2.97,0-1.64-1.49-3-3.3-2.99M20.72,12.57c-.98,0-1.78-.71-1.78-1.61s.78-1.59,1.75-1.61c.97-.01,1.79.73,1.78,1.61,0,.88-.78,1.6-1.75,1.61M20.69,7.98c-1.8,0-3.26,1.34-3.27,2.98,0,1.64,1.45,2.97,3.26,2.99,1.82,0,3.3-1.32,3.31-2.97,0-1.64-1.49-3-3.3-2.99M20.72,12.57c-.98,0-1.78-.71-1.78-1.61s.78-1.59,1.75-1.61c.97-.01,1.79.73,1.78,1.61,0,.88-.78,1.6-1.75,1.61M20.69,7.98c-1.8,0-3.26,1.34-3.27,2.98,0,1.64,1.45,2.97,3.26,2.99,1.82,0,3.3-1.32,3.31-2.97,0-1.64-1.49-3-3.3-2.99M20.72,12.57c-.98,0-1.78-.71-1.78-1.61s.78-1.59,1.75-1.61c.97-.01,1.79.73,1.78,1.61,0,.88-.78,1.6-1.75,1.61M20.69,7.98c-1.8,0-3.26,1.34-3.27,2.98,0,1.64,1.45,2.97,3.26,2.99,1.82,0,3.3-1.32,3.31-2.97,0-1.64-1.49-3-3.3-2.99M20.72,12.57c-.98,0-1.78-.71-1.78-1.61s.78-1.59,1.75-1.61c.97-.01,1.79.73,1.78,1.61,0,.88-.78,1.6-1.75,1.61M20.69,7.98c-1.8,0-3.26,1.34-3.27,2.98,0,1.64,1.45,2.97,3.26,2.99,1.82,0,3.3-1.32,3.31-2.97,0-1.64-1.49-3-3.3-2.99M20.72,12.57c-.98,0-1.78-.71-1.78-1.61s.78-1.59,1.75-1.61c.97-.01,1.79.73,1.78,1.61,0,.88-.78,1.6-1.75,1.61M20.69,7.98c-1.8,0-3.26,1.34-3.27,2.98,0,1.64,1.45,2.97,3.26,2.99,1.82,0,3.3-1.32,3.31-2.97,0-1.64-1.49-3-3.3-2.99M20.72,12.57c-.98,0-1.78-.71-1.78-1.61s.78-1.59,1.75-1.61c.97-.01,1.79.73,1.78,1.61,0,.88-.78,1.6-1.75,1.61M20.69,7.98c-1.8,0-3.26,1.34-3.27,2.98,0,1.64,1.45,2.97,3.26,2.99,1.82,0,3.3-1.32,3.31-2.97,0-1.64-1.49-3-3.3-2.99"/>
    <path class="cls-1" d="M29.27,18.76c-.4.39-.85.42-1.19.12-.32-.29-.28-.7.1-1.06,1.54-1.45,2.51-3.16,2.91-5.14.88-4.39-1.84-8.86-6.43-10.56-6.39-2.37-13.48,1.26-14.57,7.46-.17.98-.14,2.49.09,3.19.16-.22.29-.4.44-.57.26-.31.7-.38,1.04-.17.34.21.44.61.2.94-.46.64-.94,1.28-1.43,1.9-.23.3-.62.37-.98.19-.72-.37-1.44-.75-2.15-1.15-.38-.21-.48-.6-.26-.93.21-.32.63-.44,1.01-.26.19.08.37.19.61.31-.17-.85-.24-1.65-.18-2.45.34-4.46,2.68-7.75,7.17-9.58,6.97-2.86,14.88.63,16.73,7.37,1.09,3.94-.05,7.42-3.1,10.39"/>
    <path class="cls-1" d="M26.67,19.99c-.01.37-.35.67-.75.67s-.74-.3-.76-.67c-.01-.38.33-.7.75-.7s.77.3.76.69"/>
    <path class="cls-1" d="M14.09,30.22c-.02.38-.35.66-.77.66-.42,0-.74-.3-.74-.68,0-.37.33-.68.74-.68.43,0,.78.31.77.7"/>
    <path class="cls-1" d="M20.72,12.57c-.98,0-1.78-.71-1.78-1.61s.78-1.59,1.75-1.61c.97-.01,1.79.73,1.78,1.61,0,.88-.78,1.6-1.75,1.61M20.69,7.98c-1.8,0-3.26,1.34-3.27,2.98,0,1.64,1.45,2.97,3.26,2.99,1.82,0,3.3-1.32,3.31-2.97,0-1.64-1.49-3-3.3-2.99"/>
    <path class="cls-1" d="M20.72,12.57c-.98,0-1.78-.71-1.78-1.61s.78-1.59,1.75-1.61c.97-.01,1.79.73,1.78,1.61,0,.88-.78,1.6-1.75,1.61M20.69,7.98c-1.8,0-3.26,1.34-3.27,2.98,0,1.64,1.45,2.97,3.26,2.99,1.82,0,3.3-1.32,3.31-2.97,0-1.64-1.49-3-3.3-2.99"/>
  </g>
</svg>