<?xml version="1.0" encoding="UTF-8"?>
<svg id="Layer_2" data-name="Layer 2" xmlns="http://www.w3.org/2000/svg" viewBox="0 0 39.5 27.61">
  <defs>
    <style>
      .cls-1 {
        fill: #d94766;
        stroke-width: 0px;
      }
    </style>
  </defs>
  <g id="Layer_1-2" data-name="Layer 1">
    <path class="cls-1" d="M31.68,10.77c-1.93,0-3.54-1.71-3.54-3.76,0-2.08,1.62-3.79,3.58-3.79,1.96,0,3.58,1.73,3.56,3.8-.01,2.09-1.62,3.75-3.61,3.75M28.27,20.53c0,.95.04,1.91.01,2.87,0,.19-.16.46-.32.54-5.47,2.67-10.95,2.67-16.42,0-.13-.06-.31-.25-.31-.39.02-1.44-.07-2.9.15-4.31.47-2.98,3.06-5.17,5.9-5.22.82-.01,1.65,0,2.47,0,0-.03,0-.06,0-.09,1.26.09,2.54.04,3.77.31,2.79.61,4.72,3.27,4.73,6.3M14.72,7.01c0-2.89,2.3-5.33,5.02-5.34,2.75,0,5.06,2.44,5.06,5.35,0,2.88-2.31,5.31-5.04,5.31s-5.03-2.44-5.03-5.32M7.76,10.77c-1.93,0-3.54-1.72-3.53-3.77,0-2.08,1.63-3.78,3.59-3.77,1.96.01,3.57,1.73,3.55,3.82,0,2.07-1.62,3.74-3.61,3.73M39.5,17.18c-.02-1.83-.63-3.42-1.93-4.63-.69-.64-1.53-1.09-2.28-1.62,2.38-2.55,1.81-5.89.09-7.73-1.89-2.02-4.8-2.22-6.9-.42-1.05.9-1.7,2.08-1.88,3.5-.23,1.86.39,3.43,1.61,4.72-.52.28-1.03.49-1.48.8-.44.31-.83.73-1.25,1.09-.08.07-.23.13-.32.1-.44-.14-.87-.31-1.3-.48,3.49-3.16,3.02-7.84.55-10.45-2.47-2.61-6.31-2.78-8.97-.33-1.32,1.22-2.12,2.76-2.27,4.61-.22,2.5.72,4.53,2.52,6.16-.53.19-1.01.37-1.46.53-.46-.4-.88-.83-1.36-1.17-.49-.34-1.03-.58-1.55-.86,2.59-2.85,1.72-6.26-.02-7.98-1.98-1.93-4.91-1.96-6.91-.1-1.79,1.67-2.78,5.2-.08,8.12-.1.04-.18.08-.27.12C1.78,12.11.41,13.84.09,16.38c-.15,1.22-.08,2.47-.05,3.71,0,.22.25.45.43.64.12.12.32.17.48.25,1.42.72,2.9,1.22,4.45,1.47.57.1.95-.13,1.05-.6.11-.55-.2-.89-.82-1.06-1.23-.35-2.45-.77-3.67-1.15-.27-.08-.39-.25-.37-.57.03-.68,0-1.35.01-2.03.07-2.45,1.96-4.47,4.27-4.54,1.29-.04,2.59-.04,3.89,0,1.16.04,2.16.53,3.02,1.46-.1.09-.16.15-.22.2-1.76,1.55-2.78,3.51-2.9,5.94-.07,1.39-.05,2.78-.06,4.18,0,.39.2.66.55.84,6.38,3.35,12.77,3.36,19.15.01.43-.22.58-.56.58-1.04-.02-1.04-.02-2.09-.01-3.13.03-2.6-.83-4.79-2.66-6.54-.15-.15-.32-.29-.5-.45.73-.79,1.56-1.34,2.56-1.39,1.56-.07,3.13-.13,4.68-.01,1.99.15,3.56,1.76,3.86,3.85.12.84.05,1.7.1,2.55.02.39-.07.62-.44.74-1.21.37-2.42.73-3.62,1.15-.28.1-.62.31-.74.57-.1.21,0,.68.17.83.21.19.61.27.89.22,1.69-.26,3.28-.86,4.8-1.66.34-.18.52-.45.51-.87-.01-.9,0-1.81,0-2.72"/>
  </g>
</svg>