<?xml version="1.0" encoding="UTF-8"?>
<svg id="Layer_2" data-name="Layer 2" xmlns="http://www.w3.org/2000/svg" viewBox="0 0 38.8 29.22">
  <defs>
    <style>
      .cls-1 {
        fill: #d94766;
        stroke-width: 0px;
      }
    </style>
  </defs>
  <g id="Layer_1-2" data-name="Layer 1">
    <path class="cls-1" d="M34.82,9.77s-.1-.02-.15-.02l.04-.04s.07.04.1.06"/>
    <path class="cls-1" d="M26.6,17.98c-1.06.92-2.02,1.96-3.01,2.95-.1.1-.16.22-.27.38-1.02-1.01-1.93-1.92-2.86-2.83-.7-.69-1.28-.69-1.98,0-.83.82-1.66,1.64-2.53,2.51-.02-.14-.04-.23-.04-.32,0-1.3,0-2.6,0-3.89.03-2.91,2.38-5.36,5.3-5.54,2.99-.18,5.58,1.92,6.01,4.83.11.76.01,1.35-.63,1.91M21.6,2.25c1.89,0,3.41,1.53,3.4,3.4-.01,1.84-1.55,3.35-3.42,3.34-1.88,0-3.41-1.54-3.4-3.4.01-1.84,1.55-3.35,3.42-3.34M13.63,23.14c0,.1-.09.22-.17.31-1.12,1.12-2.25,2.23-3.38,3.33-.09.09-.23.17-.35.17-2.46,0-4.92,0-7.39,0,0,0-.02-.01-.07-.04,0-1.96-.02-3.92,0-5.88,0-.79-.01-1.61.15-2.38.56-2.71,3.03-4.54,5.86-4.41,2.69.12,5,2.21,5.27,4.9.14,1.32.07,2.67.07,4M7.97,5.24c1.88,0,3.41,1.54,3.4,3.4-.02,1.84-1.56,3.35-3.42,3.34-1.88,0-3.41-1.53-3.39-3.4,0-1.84,1.55-3.34,3.42-3.34M37.76,7.5c-1.58-.02-3.16-.02-4.73,0-.59.01-1.05.54-1.05,1.12,0,.6.48,1.09,1.1,1.11.49.02.99,0,1.48.01.04,0,.08,0,.12.01l-5.34,5.28c-.24-1.03-.72-2.04-1.41-2.94-.7-.92-1.58-1.64-2.6-2.2,2.79-2.54,2.35-6.31.23-8.31-2.18-2.06-5.54-2.12-7.76-.12-1.1.99-1.73,2.23-1.85,3.7-.15,1.87.55,3.44,1.95,4.72-1.95,1.08-3.26,2.65-3.92,4.69-.76-.59-1.51-1.17-2.25-1.75,2.52-2.27,2.42-5.77.5-7.92-1.97-2.2-5.3-2.56-7.67-.79-1.18.88-1.93,2.04-2.19,3.47-.37,2.09.31,3.84,1.87,5.29-.07.05-.1.07-.13.09C1.37,14.58,0,16.96,0,20.11,0,22.69,0,25.27,0,27.86c0,.93.42,1.35,1.36,1.35,2.9,0,5.8,0,8.71,0,.55,0,.96-.17,1.35-.55,2.57-2.56,5.15-5.1,7.74-7.65.1-.1.21-.2.33-.32.93.92,1.83,1.81,2.73,2.71.77.76,1.32.76,2.09,0l11.84-11.7c.1-.1.21-.2.38-.35,0,.63-.01,1.19,0,1.74.01.56.37.98.9,1.11.49.11,1-.14,1.26-.62.04-.06.07-.12.12-.18v-5.09c-.23-.43-.51-.81-1.04-.82"/>
  </g>
</svg>